%TF.GenerationSoftware,KiCad,Pcbnew,(6.0.5)*%
%TF.CreationDate,2022-05-25T11:21:46-03:00*%
%TF.ProjectId,PCB,5043422e-6b69-4636-9164-5f7063625858,rev?*%
%TF.SameCoordinates,Original*%
%TF.FileFunction,Copper,L2,Bot*%
%TF.FilePolarity,Positive*%
%FSLAX46Y46*%
G04 Gerber Fmt 4.6, Leading zero omitted, Abs format (unit mm)*
G04 Created by KiCad (PCBNEW (6.0.5)) date 2022-05-25 11:21:46*
%MOMM*%
%LPD*%
G01*
G04 APERTURE LIST*
G04 Aperture macros list*
%AMRoundRect*
0 Rectangle with rounded corners*
0 $1 Rounding radius*
0 $2 $3 $4 $5 $6 $7 $8 $9 X,Y pos of 4 corners*
0 Add a 4 corners polygon primitive as box body*
4,1,4,$2,$3,$4,$5,$6,$7,$8,$9,$2,$3,0*
0 Add four circle primitives for the rounded corners*
1,1,$1+$1,$2,$3*
1,1,$1+$1,$4,$5*
1,1,$1+$1,$6,$7*
1,1,$1+$1,$8,$9*
0 Add four rect primitives between the rounded corners*
20,1,$1+$1,$2,$3,$4,$5,0*
20,1,$1+$1,$4,$5,$6,$7,0*
20,1,$1+$1,$6,$7,$8,$9,0*
20,1,$1+$1,$8,$9,$2,$3,0*%
G04 Aperture macros list end*
%TA.AperFunction,SMDPad,CuDef*%
%ADD10RoundRect,0.250000X0.350000X0.450000X-0.350000X0.450000X-0.350000X-0.450000X0.350000X-0.450000X0*%
%TD*%
%TA.AperFunction,ComponentPad*%
%ADD11O,1.600000X2.400000*%
%TD*%
%TA.AperFunction,ComponentPad*%
%ADD12R,1.600000X2.400000*%
%TD*%
%TA.AperFunction,ComponentPad*%
%ADD13R,1.700000X1.700000*%
%TD*%
%TA.AperFunction,ComponentPad*%
%ADD14O,1.700000X1.700000*%
%TD*%
%TA.AperFunction,ComponentPad*%
%ADD15R,2.400000X1.600000*%
%TD*%
%TA.AperFunction,ComponentPad*%
%ADD16O,2.400000X1.600000*%
%TD*%
%TA.AperFunction,Conductor*%
%ADD17C,1.000000*%
%TD*%
%TA.AperFunction,Conductor*%
%ADD18C,0.250000*%
%TD*%
G04 APERTURE END LIST*
D10*
%TO.P,R3,1*%
%TO.N,Net-(R3-Pad1)*%
X164578000Y-82286000D03*
%TO.P,R3,2*%
%TO.N,Net-(R3-Pad2)*%
X162578000Y-82286000D03*
%TD*%
D11*
%TO.P,J2,40,Pin_40*%
%TO.N,VCC*%
X143761000Y-98679000D03*
%TO.P,J2,39,Pin_39*%
%TO.N,unconnected-(J2-Pad39)*%
X146301000Y-98679000D03*
%TO.P,J2,38,Pin_38*%
%TO.N,unconnected-(J2-Pad38)*%
X148841000Y-98679000D03*
%TO.P,J2,37,Pin_37*%
%TO.N,unconnected-(J2-Pad37)*%
X151381000Y-98679000D03*
%TO.P,J2,36,Pin_36*%
%TO.N,unconnected-(J2-Pad36)*%
X153921000Y-98679000D03*
%TO.P,J2,35,Pin_35*%
%TO.N,unconnected-(J2-Pad35)*%
X156461000Y-98679000D03*
%TO.P,J2,34,Pin_34*%
%TO.N,unconnected-(J2-Pad34)*%
X159001000Y-98679000D03*
%TO.P,J2,33,Pin_33*%
%TO.N,unconnected-(J2-Pad33)*%
X161541000Y-98679000D03*
%TO.P,J2,32,Pin_32*%
%TO.N,unconnected-(J2-Pad32)*%
X164081000Y-98679000D03*
%TO.P,J2,31,Pin_31*%
%TO.N,unconnected-(J2-Pad31)*%
X166621000Y-98679000D03*
%TO.P,J2,30,Pin_30*%
%TO.N,unconnected-(J2-Pad30)*%
X169161000Y-98679000D03*
%TO.P,J2,29,Pin_29*%
%TO.N,unconnected-(J2-Pad29)*%
X171701000Y-98679000D03*
%TO.P,J2,28,Pin_28*%
%TO.N,unconnected-(J2-Pad28)*%
X174241000Y-98679000D03*
%TO.P,J2,27,Pin_27*%
%TO.N,unconnected-(J2-Pad27)*%
X176781000Y-98679000D03*
%TO.P,J2,26,Pin_26*%
%TO.N,unconnected-(J2-Pad26)*%
X179321000Y-98679000D03*
%TO.P,J2,25,Pin_25*%
%TO.N,unconnected-(J2-Pad25)*%
X181861000Y-98679000D03*
%TO.P,J2,24,Pin_24*%
%TO.N,unconnected-(J2-Pad24)*%
X184401000Y-98679000D03*
%TO.P,J2,23,Pin_23*%
%TO.N,unconnected-(J2-Pad23)*%
X186941000Y-98679000D03*
%TO.P,J2,22,Pin_22*%
%TO.N,unconnected-(J2-Pad22)*%
X189481000Y-98679000D03*
%TO.P,J2,21,Pin_21*%
%TO.N,/PWM*%
X192021000Y-98679000D03*
%TO.P,J2,20,Pin_20*%
%TO.N,Net-(J1-Pad2)*%
X192021000Y-124079000D03*
%TO.P,J2,19,Pin_19*%
%TO.N,unconnected-(J2-Pad19)*%
X189481000Y-124079000D03*
%TO.P,J2,18,Pin_18*%
%TO.N,unconnected-(J2-Pad18)*%
X186941000Y-124079000D03*
%TO.P,J2,17,Pin_17*%
%TO.N,unconnected-(J2-Pad17)*%
X184401000Y-124079000D03*
%TO.P,J2,16,Pin_16*%
%TO.N,unconnected-(J2-Pad16)*%
X181861000Y-124079000D03*
%TO.P,J2,15,Pin_15*%
%TO.N,unconnected-(J2-Pad15)*%
X179321000Y-124079000D03*
%TO.P,J2,14,Pin_14*%
%TO.N,unconnected-(J2-Pad14)*%
X176781000Y-124079000D03*
%TO.P,J2,13,Pin_13*%
%TO.N,unconnected-(J2-Pad13)*%
X174241000Y-124079000D03*
%TO.P,J2,12,Pin_12*%
%TO.N,unconnected-(J2-Pad12)*%
X171701000Y-124079000D03*
%TO.P,J2,11,Pin_11*%
%TO.N,unconnected-(J2-Pad11)*%
X169161000Y-124079000D03*
%TO.P,J2,10,Pin_10*%
%TO.N,unconnected-(J2-Pad10)*%
X166621000Y-124079000D03*
%TO.P,J2,9,Pin_9*%
%TO.N,unconnected-(J2-Pad9)*%
X164081000Y-124079000D03*
%TO.P,J2,8,Pin_8*%
%TO.N,unconnected-(J2-Pad8)*%
X161541000Y-124079000D03*
%TO.P,J2,7,Pin_7*%
%TO.N,unconnected-(J2-Pad7)*%
X159001000Y-124079000D03*
%TO.P,J2,6,Pin_6*%
%TO.N,unconnected-(J2-Pad6)*%
X156461000Y-124079000D03*
%TO.P,J2,5,Pin_5*%
%TO.N,unconnected-(J2-Pad5)*%
X153921000Y-124079000D03*
%TO.P,J2,4,Pin_4*%
%TO.N,unconnected-(J2-Pad4)*%
X151381000Y-124079000D03*
%TO.P,J2,3,Pin_3*%
%TO.N,unconnected-(J2-Pad3)*%
X148841000Y-124079000D03*
%TO.P,J2,2,Pin_2*%
%TO.N,unconnected-(J2-Pad2)*%
X146301000Y-124079000D03*
D12*
%TO.P,J2,1,Pin_1*%
%TO.N,GND*%
X143761000Y-124079000D03*
%TD*%
D13*
%TO.P,J5,1,Pin_1*%
%TO.N,Net-(R3-Pad2)*%
X148338000Y-82286000D03*
%TD*%
%TO.P,J4,1,Pin_1*%
%TO.N,Net-(R3-Pad1)*%
X148338000Y-87366000D03*
%TD*%
%TO.P,J3,1,Pin_1*%
%TO.N,Net-(R2-Pad2)*%
X148338000Y-92446000D03*
%TD*%
%TO.P,J1,1,Pin_1*%
%TO.N,VCC*%
X190746000Y-136779000D03*
D14*
%TO.P,J1,2,Pin_2*%
%TO.N,Net-(J1-Pad2)*%
X193286000Y-136779000D03*
%TO.P,J1,3,Pin_3*%
%TO.N,GND*%
X195826000Y-136779000D03*
%TD*%
D15*
%TO.P,U1,1*%
%TO.N,Net-(R1-Pad2)*%
X177538000Y-92456000D03*
D16*
%TO.P,U1,2*%
%TO.N,GND*%
X177538000Y-89916000D03*
%TO.P,U1,3,NC*%
%TO.N,unconnected-(U1-Pad3)*%
X177538000Y-87376000D03*
%TO.P,U1,4*%
%TO.N,Net-(R3-Pad1)*%
X169918000Y-87376000D03*
%TO.P,U1,5,NC*%
%TO.N,unconnected-(U1-Pad5)*%
X169918000Y-89916000D03*
%TO.P,U1,6*%
%TO.N,Net-(R2-Pad1)*%
X169918000Y-92456000D03*
%TD*%
D10*
%TO.P,R2,1*%
%TO.N,Net-(R2-Pad1)*%
X159498000Y-92446000D03*
%TO.P,R2,2*%
%TO.N,Net-(R2-Pad2)*%
X157498000Y-92446000D03*
%TD*%
%TO.P,R1,1*%
%TO.N,/PWM*%
X183618000Y-92456000D03*
%TO.P,R1,2*%
%TO.N,Net-(R1-Pad2)*%
X181618000Y-92456000D03*
%TD*%
D17*
%TO.N,GND*%
X189603000Y-89916000D02*
X177538000Y-89916000D01*
X195826000Y-118999000D02*
X195826000Y-96139000D01*
X195826000Y-96139000D02*
X189603000Y-89916000D01*
%TO.N,/PWM*%
X187063000Y-92456000D02*
X183618000Y-92456000D01*
X192021000Y-97414000D02*
X187063000Y-92456000D01*
X192021000Y-98679000D02*
X192021000Y-97414000D01*
%TO.N,VCC*%
X142486000Y-98679000D02*
X143761000Y-98679000D01*
X139946000Y-101219000D02*
X142486000Y-98679000D01*
X150106000Y-136779000D02*
X139946000Y-126619000D01*
X139946000Y-126619000D02*
X139946000Y-101219000D01*
X190746000Y-136779000D02*
X150106000Y-136779000D01*
%TO.N,GND*%
X195826000Y-118999000D02*
X193286000Y-116459000D01*
X193286000Y-116459000D02*
X145026000Y-116459000D01*
X143761000Y-117724000D02*
X143761000Y-124079000D01*
X145026000Y-116459000D02*
X143761000Y-117724000D01*
X195826000Y-136779000D02*
X195826000Y-118999000D01*
%TO.N,Net-(J1-Pad2)*%
X193286000Y-125344000D02*
X193286000Y-136779000D01*
X192021000Y-124079000D02*
X193286000Y-125344000D01*
%TO.N,Net-(R1-Pad2)*%
X177538000Y-92456000D02*
X181618000Y-92456000D01*
X181608000Y-92466000D02*
X181618000Y-92456000D01*
%TO.N,Net-(R3-Pad2)*%
X162578000Y-82286000D02*
X148338000Y-82286000D01*
%TO.N,Net-(R3-Pad1)*%
X164828000Y-82286000D02*
X169918000Y-87376000D01*
X164578000Y-82286000D02*
X164828000Y-82286000D01*
X169908000Y-87366000D02*
X169918000Y-87376000D01*
X148338000Y-87366000D02*
X169908000Y-87366000D01*
%TO.N,Net-(R2-Pad2)*%
X157498000Y-92446000D02*
X148338000Y-92446000D01*
%TO.N,Net-(R2-Pad1)*%
X159498000Y-92446000D02*
X159508000Y-92456000D01*
X159508000Y-92456000D02*
X169918000Y-92456000D01*
D18*
%TO.N,Net-(R1-Pad2)*%
X181618000Y-92456000D02*
X181608000Y-92446000D01*
%TD*%
%TA.AperFunction,Conductor*%
%TO.N,GND*%
G36*
X200728621Y-67203002D02*
G01*
X200775114Y-67256658D01*
X200786500Y-67309000D01*
X200786500Y-147956000D01*
X200766498Y-148024121D01*
X200712842Y-148070614D01*
X200660500Y-148082000D01*
X133984500Y-148082000D01*
X133916379Y-148061998D01*
X133869886Y-148008342D01*
X133858500Y-147956000D01*
X133858500Y-101215462D01*
X138932626Y-101215462D01*
X138933206Y-101221593D01*
X138936941Y-101261109D01*
X138937500Y-101272967D01*
X138937500Y-126557157D01*
X138936763Y-126570764D01*
X138932676Y-126608388D01*
X138933213Y-126614523D01*
X138937050Y-126658388D01*
X138937379Y-126663214D01*
X138937500Y-126665686D01*
X138937500Y-126668769D01*
X138937801Y-126671837D01*
X138941690Y-126711506D01*
X138941812Y-126712819D01*
X138949913Y-126805413D01*
X138951400Y-126810532D01*
X138951920Y-126815833D01*
X138978791Y-126904834D01*
X138979126Y-126905967D01*
X139005091Y-126995336D01*
X139007544Y-127000068D01*
X139009084Y-127005169D01*
X139011978Y-127010612D01*
X139052731Y-127087260D01*
X139053343Y-127088426D01*
X139096108Y-127170926D01*
X139099431Y-127175089D01*
X139101934Y-127179796D01*
X139160755Y-127251918D01*
X139161446Y-127252774D01*
X139192738Y-127291973D01*
X139195242Y-127294477D01*
X139195884Y-127295195D01*
X139199585Y-127299528D01*
X139226935Y-127333062D01*
X139231682Y-127336989D01*
X139231684Y-127336991D01*
X139262262Y-127362287D01*
X139271042Y-127370277D01*
X149349145Y-137448379D01*
X149358247Y-137458522D01*
X149381968Y-137488025D01*
X149386696Y-137491992D01*
X149420421Y-137520291D01*
X149424069Y-137523472D01*
X149425881Y-137525115D01*
X149428075Y-137527309D01*
X149461349Y-137554642D01*
X149462147Y-137555304D01*
X149533474Y-137615154D01*
X149538144Y-137617722D01*
X149542261Y-137621103D01*
X149619446Y-137662489D01*
X149624120Y-137664995D01*
X149625280Y-137665624D01*
X149701389Y-137707466D01*
X149701394Y-137707468D01*
X149706787Y-137710433D01*
X149711865Y-137712044D01*
X149716563Y-137714563D01*
X149805498Y-137741753D01*
X149806702Y-137742128D01*
X149895306Y-137770235D01*
X149900597Y-137770828D01*
X149905698Y-137772388D01*
X149911830Y-137773011D01*
X149911836Y-137773012D01*
X149972338Y-137779157D01*
X149998263Y-137781790D01*
X149999450Y-137781916D01*
X150028838Y-137785213D01*
X150045730Y-137787108D01*
X150045735Y-137787108D01*
X150049227Y-137787500D01*
X150052752Y-137787500D01*
X150053737Y-137787555D01*
X150059432Y-137788003D01*
X150071342Y-137789213D01*
X150096334Y-137791752D01*
X150096339Y-137791752D01*
X150102462Y-137792374D01*
X150148111Y-137788059D01*
X150159968Y-137787500D01*
X189324991Y-137787500D01*
X189393112Y-137807502D01*
X189439605Y-137861158D01*
X189441903Y-137866694D01*
X189442232Y-137867296D01*
X189445385Y-137875705D01*
X189532739Y-137992261D01*
X189649295Y-138079615D01*
X189785684Y-138130745D01*
X189847866Y-138137500D01*
X191644134Y-138137500D01*
X191706316Y-138130745D01*
X191842705Y-138079615D01*
X191959261Y-137992261D01*
X192046615Y-137875705D01*
X192068799Y-137816529D01*
X192090598Y-137758382D01*
X192133240Y-137701618D01*
X192199802Y-137676918D01*
X192269150Y-137692126D01*
X192303817Y-137720114D01*
X192332250Y-137752938D01*
X192504126Y-137895632D01*
X192697000Y-138008338D01*
X192905692Y-138088030D01*
X192910760Y-138089061D01*
X192910763Y-138089062D01*
X193005862Y-138108410D01*
X193124597Y-138132567D01*
X193129772Y-138132757D01*
X193129774Y-138132757D01*
X193342673Y-138140564D01*
X193342677Y-138140564D01*
X193347837Y-138140753D01*
X193352957Y-138140097D01*
X193352959Y-138140097D01*
X193564288Y-138113025D01*
X193564289Y-138113025D01*
X193569416Y-138112368D01*
X193574366Y-138110883D01*
X193778429Y-138049661D01*
X193778434Y-138049659D01*
X193783384Y-138048174D01*
X193983994Y-137949896D01*
X194165860Y-137820173D01*
X194178576Y-137807502D01*
X194274170Y-137712241D01*
X194324096Y-137662489D01*
X194358110Y-137615154D01*
X194454453Y-137481077D01*
X194455640Y-137481930D01*
X194502960Y-137438362D01*
X194572897Y-137426145D01*
X194638338Y-137453678D01*
X194666166Y-137485511D01*
X194723694Y-137579388D01*
X194729777Y-137587699D01*
X194869213Y-137748667D01*
X194876580Y-137755883D01*
X195040434Y-137891916D01*
X195048881Y-137897831D01*
X195232756Y-138005279D01*
X195242042Y-138009729D01*
X195441001Y-138085703D01*
X195450899Y-138088579D01*
X195554250Y-138109606D01*
X195568299Y-138108410D01*
X195572000Y-138098065D01*
X195572000Y-138097517D01*
X196080000Y-138097517D01*
X196084064Y-138111359D01*
X196097478Y-138113393D01*
X196104184Y-138112534D01*
X196114262Y-138110392D01*
X196318255Y-138049191D01*
X196327842Y-138045433D01*
X196519095Y-137951739D01*
X196527945Y-137946464D01*
X196701328Y-137822792D01*
X196709200Y-137816139D01*
X196860052Y-137665812D01*
X196866730Y-137657965D01*
X196991003Y-137485020D01*
X196996313Y-137476183D01*
X197090670Y-137285267D01*
X197094469Y-137275672D01*
X197156377Y-137071910D01*
X197158555Y-137061837D01*
X197159986Y-137050962D01*
X197157775Y-137036778D01*
X197144617Y-137033000D01*
X196098115Y-137033000D01*
X196082876Y-137037475D01*
X196081671Y-137038865D01*
X196080000Y-137046548D01*
X196080000Y-138097517D01*
X195572000Y-138097517D01*
X195572000Y-136506885D01*
X196080000Y-136506885D01*
X196084475Y-136522124D01*
X196085865Y-136523329D01*
X196093548Y-136525000D01*
X197144344Y-136525000D01*
X197157875Y-136521027D01*
X197159180Y-136511947D01*
X197117214Y-136344875D01*
X197113894Y-136335124D01*
X197028972Y-136139814D01*
X197024105Y-136130739D01*
X196908426Y-135951926D01*
X196902136Y-135943757D01*
X196758806Y-135786240D01*
X196751273Y-135779215D01*
X196584139Y-135647222D01*
X196575552Y-135641517D01*
X196389117Y-135538599D01*
X196379705Y-135534369D01*
X196178959Y-135463280D01*
X196168988Y-135460646D01*
X196097837Y-135447972D01*
X196084540Y-135449432D01*
X196080000Y-135463989D01*
X196080000Y-136506885D01*
X195572000Y-136506885D01*
X195572000Y-135462102D01*
X195568082Y-135448758D01*
X195553806Y-135446771D01*
X195515324Y-135452660D01*
X195505288Y-135455051D01*
X195302868Y-135521212D01*
X195293359Y-135525209D01*
X195104463Y-135623542D01*
X195095738Y-135629036D01*
X194925433Y-135756905D01*
X194917726Y-135763748D01*
X194770590Y-135917717D01*
X194764109Y-135925722D01*
X194659498Y-136079074D01*
X194604587Y-136124076D01*
X194534062Y-136132247D01*
X194470315Y-136100993D01*
X194449618Y-136076509D01*
X194440568Y-136062520D01*
X194366014Y-135947277D01*
X194362532Y-135943450D01*
X194327306Y-135904737D01*
X194296254Y-135840891D01*
X194294500Y-135819938D01*
X194294500Y-125405842D01*
X194295237Y-125392235D01*
X194298659Y-125360737D01*
X194298659Y-125360732D01*
X194299324Y-125354611D01*
X194295626Y-125312341D01*
X194294950Y-125304609D01*
X194294621Y-125299784D01*
X194294500Y-125297313D01*
X194294500Y-125294231D01*
X194290309Y-125251489D01*
X194290187Y-125250174D01*
X194282623Y-125163719D01*
X194282087Y-125157587D01*
X194280600Y-125152468D01*
X194280080Y-125147167D01*
X194253209Y-125058166D01*
X194252874Y-125057033D01*
X194228630Y-124973586D01*
X194228628Y-124973582D01*
X194226909Y-124967664D01*
X194224456Y-124962932D01*
X194222916Y-124957831D01*
X194179269Y-124875740D01*
X194178657Y-124874574D01*
X194138729Y-124797547D01*
X194135892Y-124792074D01*
X194132569Y-124787911D01*
X194130066Y-124783204D01*
X194071245Y-124711082D01*
X194070554Y-124710226D01*
X194039262Y-124671027D01*
X194036758Y-124668523D01*
X194036116Y-124667805D01*
X194032415Y-124663472D01*
X194005065Y-124629938D01*
X193969733Y-124600709D01*
X193960963Y-124592728D01*
X193366405Y-123998171D01*
X193332380Y-123935858D01*
X193329500Y-123909075D01*
X193329500Y-123621873D01*
X193314543Y-123450913D01*
X193255284Y-123229757D01*
X193176805Y-123061457D01*
X193160849Y-123027238D01*
X193160846Y-123027233D01*
X193158523Y-123022251D01*
X193085098Y-122917389D01*
X193030357Y-122839211D01*
X193030355Y-122839208D01*
X193027198Y-122834700D01*
X192865300Y-122672802D01*
X192860792Y-122669645D01*
X192860789Y-122669643D01*
X192782611Y-122614902D01*
X192677749Y-122541477D01*
X192672767Y-122539154D01*
X192672762Y-122539151D01*
X192475225Y-122447039D01*
X192475224Y-122447039D01*
X192470243Y-122444716D01*
X192464935Y-122443294D01*
X192464933Y-122443293D01*
X192254402Y-122386881D01*
X192254400Y-122386881D01*
X192249087Y-122385457D01*
X192021000Y-122365502D01*
X191792913Y-122385457D01*
X191787600Y-122386881D01*
X191787598Y-122386881D01*
X191577067Y-122443293D01*
X191577065Y-122443294D01*
X191571757Y-122444716D01*
X191566776Y-122447039D01*
X191566775Y-122447039D01*
X191369238Y-122539151D01*
X191369233Y-122539154D01*
X191364251Y-122541477D01*
X191259389Y-122614902D01*
X191181211Y-122669643D01*
X191181208Y-122669645D01*
X191176700Y-122672802D01*
X191014802Y-122834700D01*
X191011645Y-122839208D01*
X191011643Y-122839211D01*
X190956902Y-122917389D01*
X190883477Y-123022251D01*
X190881154Y-123027233D01*
X190881151Y-123027238D01*
X190865195Y-123061457D01*
X190818278Y-123114742D01*
X190750001Y-123134203D01*
X190682041Y-123113661D01*
X190636805Y-123061457D01*
X190620849Y-123027238D01*
X190620846Y-123027233D01*
X190618523Y-123022251D01*
X190545098Y-122917389D01*
X190490357Y-122839211D01*
X190490355Y-122839208D01*
X190487198Y-122834700D01*
X190325300Y-122672802D01*
X190320792Y-122669645D01*
X190320789Y-122669643D01*
X190242611Y-122614902D01*
X190137749Y-122541477D01*
X190132767Y-122539154D01*
X190132762Y-122539151D01*
X189935225Y-122447039D01*
X189935224Y-122447039D01*
X189930243Y-122444716D01*
X189924935Y-122443294D01*
X189924933Y-122443293D01*
X189714402Y-122386881D01*
X189714400Y-122386881D01*
X189709087Y-122385457D01*
X189481000Y-122365502D01*
X189252913Y-122385457D01*
X189247600Y-122386881D01*
X189247598Y-122386881D01*
X189037067Y-122443293D01*
X189037065Y-122443294D01*
X189031757Y-122444716D01*
X189026776Y-122447039D01*
X189026775Y-122447039D01*
X188829238Y-122539151D01*
X188829233Y-122539154D01*
X188824251Y-122541477D01*
X188719389Y-122614902D01*
X188641211Y-122669643D01*
X188641208Y-122669645D01*
X188636700Y-122672802D01*
X188474802Y-122834700D01*
X188471645Y-122839208D01*
X188471643Y-122839211D01*
X188416902Y-122917389D01*
X188343477Y-123022251D01*
X188341154Y-123027233D01*
X188341151Y-123027238D01*
X188325195Y-123061457D01*
X188278278Y-123114742D01*
X188210001Y-123134203D01*
X188142041Y-123113661D01*
X188096805Y-123061457D01*
X188080849Y-123027238D01*
X188080846Y-123027233D01*
X188078523Y-123022251D01*
X188005098Y-122917389D01*
X187950357Y-122839211D01*
X187950355Y-122839208D01*
X187947198Y-122834700D01*
X187785300Y-122672802D01*
X187780792Y-122669645D01*
X187780789Y-122669643D01*
X187702611Y-122614902D01*
X187597749Y-122541477D01*
X187592767Y-122539154D01*
X187592762Y-122539151D01*
X187395225Y-122447039D01*
X187395224Y-122447039D01*
X187390243Y-122444716D01*
X187384935Y-122443294D01*
X187384933Y-122443293D01*
X187174402Y-122386881D01*
X187174400Y-122386881D01*
X187169087Y-122385457D01*
X186941000Y-122365502D01*
X186712913Y-122385457D01*
X186707600Y-122386881D01*
X186707598Y-122386881D01*
X186497067Y-122443293D01*
X186497065Y-122443294D01*
X186491757Y-122444716D01*
X186486776Y-122447039D01*
X186486775Y-122447039D01*
X186289238Y-122539151D01*
X186289233Y-122539154D01*
X186284251Y-122541477D01*
X186179389Y-122614902D01*
X186101211Y-122669643D01*
X186101208Y-122669645D01*
X186096700Y-122672802D01*
X185934802Y-122834700D01*
X185931645Y-122839208D01*
X185931643Y-122839211D01*
X185876902Y-122917389D01*
X185803477Y-123022251D01*
X185801154Y-123027233D01*
X185801151Y-123027238D01*
X185785195Y-123061457D01*
X185738278Y-123114742D01*
X185670001Y-123134203D01*
X185602041Y-123113661D01*
X185556805Y-123061457D01*
X185540849Y-123027238D01*
X185540846Y-123027233D01*
X185538523Y-123022251D01*
X185465098Y-122917389D01*
X185410357Y-122839211D01*
X185410355Y-122839208D01*
X185407198Y-122834700D01*
X185245300Y-122672802D01*
X185240792Y-122669645D01*
X185240789Y-122669643D01*
X185162611Y-122614902D01*
X185057749Y-122541477D01*
X185052767Y-122539154D01*
X185052762Y-122539151D01*
X184855225Y-122447039D01*
X184855224Y-122447039D01*
X184850243Y-122444716D01*
X184844935Y-122443294D01*
X184844933Y-122443293D01*
X184634402Y-122386881D01*
X184634400Y-122386881D01*
X184629087Y-122385457D01*
X184401000Y-122365502D01*
X184172913Y-122385457D01*
X184167600Y-122386881D01*
X184167598Y-122386881D01*
X183957067Y-122443293D01*
X183957065Y-122443294D01*
X183951757Y-122444716D01*
X183946776Y-122447039D01*
X183946775Y-122447039D01*
X183749238Y-122539151D01*
X183749233Y-122539154D01*
X183744251Y-122541477D01*
X183639389Y-122614902D01*
X183561211Y-122669643D01*
X183561208Y-122669645D01*
X183556700Y-122672802D01*
X183394802Y-122834700D01*
X183391645Y-122839208D01*
X183391643Y-122839211D01*
X183336902Y-122917389D01*
X183263477Y-123022251D01*
X183261154Y-123027233D01*
X183261151Y-123027238D01*
X183245195Y-123061457D01*
X183198278Y-123114742D01*
X183130001Y-123134203D01*
X183062041Y-123113661D01*
X183016805Y-123061457D01*
X183000849Y-123027238D01*
X183000846Y-123027233D01*
X182998523Y-123022251D01*
X182925098Y-122917389D01*
X182870357Y-122839211D01*
X182870355Y-122839208D01*
X182867198Y-122834700D01*
X182705300Y-122672802D01*
X182700792Y-122669645D01*
X182700789Y-122669643D01*
X182622611Y-122614902D01*
X182517749Y-122541477D01*
X182512767Y-122539154D01*
X182512762Y-122539151D01*
X182315225Y-122447039D01*
X182315224Y-122447039D01*
X182310243Y-122444716D01*
X182304935Y-122443294D01*
X182304933Y-122443293D01*
X182094402Y-122386881D01*
X182094400Y-122386881D01*
X182089087Y-122385457D01*
X181861000Y-122365502D01*
X181632913Y-122385457D01*
X181627600Y-122386881D01*
X181627598Y-122386881D01*
X181417067Y-122443293D01*
X181417065Y-122443294D01*
X181411757Y-122444716D01*
X181406776Y-122447039D01*
X181406775Y-122447039D01*
X181209238Y-122539151D01*
X181209233Y-122539154D01*
X181204251Y-122541477D01*
X181099389Y-122614902D01*
X181021211Y-122669643D01*
X181021208Y-122669645D01*
X181016700Y-122672802D01*
X180854802Y-122834700D01*
X180851645Y-122839208D01*
X180851643Y-122839211D01*
X180796902Y-122917389D01*
X180723477Y-123022251D01*
X180721154Y-123027233D01*
X180721151Y-123027238D01*
X180705195Y-123061457D01*
X180658278Y-123114742D01*
X180590001Y-123134203D01*
X180522041Y-123113661D01*
X180476805Y-123061457D01*
X180460849Y-123027238D01*
X180460846Y-123027233D01*
X180458523Y-123022251D01*
X180385098Y-122917389D01*
X180330357Y-122839211D01*
X180330355Y-122839208D01*
X180327198Y-122834700D01*
X180165300Y-122672802D01*
X180160792Y-122669645D01*
X180160789Y-122669643D01*
X180082611Y-122614902D01*
X179977749Y-122541477D01*
X179972767Y-122539154D01*
X179972762Y-122539151D01*
X179775225Y-122447039D01*
X179775224Y-122447039D01*
X179770243Y-122444716D01*
X179764935Y-122443294D01*
X179764933Y-122443293D01*
X179554402Y-122386881D01*
X179554400Y-122386881D01*
X179549087Y-122385457D01*
X179321000Y-122365502D01*
X179092913Y-122385457D01*
X179087600Y-122386881D01*
X179087598Y-122386881D01*
X178877067Y-122443293D01*
X178877065Y-122443294D01*
X178871757Y-122444716D01*
X178866776Y-122447039D01*
X178866775Y-122447039D01*
X178669238Y-122539151D01*
X178669233Y-122539154D01*
X178664251Y-122541477D01*
X178559389Y-122614902D01*
X178481211Y-122669643D01*
X178481208Y-122669645D01*
X178476700Y-122672802D01*
X178314802Y-122834700D01*
X178311645Y-122839208D01*
X178311643Y-122839211D01*
X178256902Y-122917389D01*
X178183477Y-123022251D01*
X178181154Y-123027233D01*
X178181151Y-123027238D01*
X178165195Y-123061457D01*
X178118278Y-123114742D01*
X178050001Y-123134203D01*
X177982041Y-123113661D01*
X177936805Y-123061457D01*
X177920849Y-123027238D01*
X177920846Y-123027233D01*
X177918523Y-123022251D01*
X177845098Y-122917389D01*
X177790357Y-122839211D01*
X177790355Y-122839208D01*
X177787198Y-122834700D01*
X177625300Y-122672802D01*
X177620792Y-122669645D01*
X177620789Y-122669643D01*
X177542611Y-122614902D01*
X177437749Y-122541477D01*
X177432767Y-122539154D01*
X177432762Y-122539151D01*
X177235225Y-122447039D01*
X177235224Y-122447039D01*
X177230243Y-122444716D01*
X177224935Y-122443294D01*
X177224933Y-122443293D01*
X177014402Y-122386881D01*
X177014400Y-122386881D01*
X177009087Y-122385457D01*
X176781000Y-122365502D01*
X176552913Y-122385457D01*
X176547600Y-122386881D01*
X176547598Y-122386881D01*
X176337067Y-122443293D01*
X176337065Y-122443294D01*
X176331757Y-122444716D01*
X176326776Y-122447039D01*
X176326775Y-122447039D01*
X176129238Y-122539151D01*
X176129233Y-122539154D01*
X176124251Y-122541477D01*
X176019389Y-122614902D01*
X175941211Y-122669643D01*
X175941208Y-122669645D01*
X175936700Y-122672802D01*
X175774802Y-122834700D01*
X175771645Y-122839208D01*
X175771643Y-122839211D01*
X175716902Y-122917389D01*
X175643477Y-123022251D01*
X175641154Y-123027233D01*
X175641151Y-123027238D01*
X175625195Y-123061457D01*
X175578278Y-123114742D01*
X175510001Y-123134203D01*
X175442041Y-123113661D01*
X175396805Y-123061457D01*
X175380849Y-123027238D01*
X175380846Y-123027233D01*
X175378523Y-123022251D01*
X175305098Y-122917389D01*
X175250357Y-122839211D01*
X175250355Y-122839208D01*
X175247198Y-122834700D01*
X175085300Y-122672802D01*
X175080792Y-122669645D01*
X175080789Y-122669643D01*
X175002611Y-122614902D01*
X174897749Y-122541477D01*
X174892767Y-122539154D01*
X174892762Y-122539151D01*
X174695225Y-122447039D01*
X174695224Y-122447039D01*
X174690243Y-122444716D01*
X174684935Y-122443294D01*
X174684933Y-122443293D01*
X174474402Y-122386881D01*
X174474400Y-122386881D01*
X174469087Y-122385457D01*
X174241000Y-122365502D01*
X174012913Y-122385457D01*
X174007600Y-122386881D01*
X174007598Y-122386881D01*
X173797067Y-122443293D01*
X173797065Y-122443294D01*
X173791757Y-122444716D01*
X173786776Y-122447039D01*
X173786775Y-122447039D01*
X173589238Y-122539151D01*
X173589233Y-122539154D01*
X173584251Y-122541477D01*
X173479389Y-122614902D01*
X173401211Y-122669643D01*
X173401208Y-122669645D01*
X173396700Y-122672802D01*
X173234802Y-122834700D01*
X173231645Y-122839208D01*
X173231643Y-122839211D01*
X173176902Y-122917389D01*
X173103477Y-123022251D01*
X173101154Y-123027233D01*
X173101151Y-123027238D01*
X173085195Y-123061457D01*
X173038278Y-123114742D01*
X172970001Y-123134203D01*
X172902041Y-123113661D01*
X172856805Y-123061457D01*
X172840849Y-123027238D01*
X172840846Y-123027233D01*
X172838523Y-123022251D01*
X172765098Y-122917389D01*
X172710357Y-122839211D01*
X172710355Y-122839208D01*
X172707198Y-122834700D01*
X172545300Y-122672802D01*
X172540792Y-122669645D01*
X172540789Y-122669643D01*
X172462611Y-122614902D01*
X172357749Y-122541477D01*
X172352767Y-122539154D01*
X172352762Y-122539151D01*
X172155225Y-122447039D01*
X172155224Y-122447039D01*
X172150243Y-122444716D01*
X172144935Y-122443294D01*
X172144933Y-122443293D01*
X171934402Y-122386881D01*
X171934400Y-122386881D01*
X171929087Y-122385457D01*
X171701000Y-122365502D01*
X171472913Y-122385457D01*
X171467600Y-122386881D01*
X171467598Y-122386881D01*
X171257067Y-122443293D01*
X171257065Y-122443294D01*
X171251757Y-122444716D01*
X171246776Y-122447039D01*
X171246775Y-122447039D01*
X171049238Y-122539151D01*
X171049233Y-122539154D01*
X171044251Y-122541477D01*
X170939389Y-122614902D01*
X170861211Y-122669643D01*
X170861208Y-122669645D01*
X170856700Y-122672802D01*
X170694802Y-122834700D01*
X170691645Y-122839208D01*
X170691643Y-122839211D01*
X170636902Y-122917389D01*
X170563477Y-123022251D01*
X170561154Y-123027233D01*
X170561151Y-123027238D01*
X170545195Y-123061457D01*
X170498278Y-123114742D01*
X170430001Y-123134203D01*
X170362041Y-123113661D01*
X170316805Y-123061457D01*
X170300849Y-123027238D01*
X170300846Y-123027233D01*
X170298523Y-123022251D01*
X170225098Y-122917389D01*
X170170357Y-122839211D01*
X170170355Y-122839208D01*
X170167198Y-122834700D01*
X170005300Y-122672802D01*
X170000792Y-122669645D01*
X170000789Y-122669643D01*
X169922611Y-122614902D01*
X169817749Y-122541477D01*
X169812767Y-122539154D01*
X169812762Y-122539151D01*
X169615225Y-122447039D01*
X169615224Y-122447039D01*
X169610243Y-122444716D01*
X169604935Y-122443294D01*
X169604933Y-122443293D01*
X169394402Y-122386881D01*
X169394400Y-122386881D01*
X169389087Y-122385457D01*
X169161000Y-122365502D01*
X168932913Y-122385457D01*
X168927600Y-122386881D01*
X168927598Y-122386881D01*
X168717067Y-122443293D01*
X168717065Y-122443294D01*
X168711757Y-122444716D01*
X168706776Y-122447039D01*
X168706775Y-122447039D01*
X168509238Y-122539151D01*
X168509233Y-122539154D01*
X168504251Y-122541477D01*
X168399389Y-122614902D01*
X168321211Y-122669643D01*
X168321208Y-122669645D01*
X168316700Y-122672802D01*
X168154802Y-122834700D01*
X168151645Y-122839208D01*
X168151643Y-122839211D01*
X168096902Y-122917389D01*
X168023477Y-123022251D01*
X168021154Y-123027233D01*
X168021151Y-123027238D01*
X168005195Y-123061457D01*
X167958278Y-123114742D01*
X167890001Y-123134203D01*
X167822041Y-123113661D01*
X167776805Y-123061457D01*
X167760849Y-123027238D01*
X167760846Y-123027233D01*
X167758523Y-123022251D01*
X167685098Y-122917389D01*
X167630357Y-122839211D01*
X167630355Y-122839208D01*
X167627198Y-122834700D01*
X167465300Y-122672802D01*
X167460792Y-122669645D01*
X167460789Y-122669643D01*
X167382611Y-122614902D01*
X167277749Y-122541477D01*
X167272767Y-122539154D01*
X167272762Y-122539151D01*
X167075225Y-122447039D01*
X167075224Y-122447039D01*
X167070243Y-122444716D01*
X167064935Y-122443294D01*
X167064933Y-122443293D01*
X166854402Y-122386881D01*
X166854400Y-122386881D01*
X166849087Y-122385457D01*
X166621000Y-122365502D01*
X166392913Y-122385457D01*
X166387600Y-122386881D01*
X166387598Y-122386881D01*
X166177067Y-122443293D01*
X166177065Y-122443294D01*
X166171757Y-122444716D01*
X166166776Y-122447039D01*
X166166775Y-122447039D01*
X165969238Y-122539151D01*
X165969233Y-122539154D01*
X165964251Y-122541477D01*
X165859389Y-122614902D01*
X165781211Y-122669643D01*
X165781208Y-122669645D01*
X165776700Y-122672802D01*
X165614802Y-122834700D01*
X165611645Y-122839208D01*
X165611643Y-122839211D01*
X165556902Y-122917389D01*
X165483477Y-123022251D01*
X165481154Y-123027233D01*
X165481151Y-123027238D01*
X165465195Y-123061457D01*
X165418278Y-123114742D01*
X165350001Y-123134203D01*
X165282041Y-123113661D01*
X165236805Y-123061457D01*
X165220849Y-123027238D01*
X165220846Y-123027233D01*
X165218523Y-123022251D01*
X165145098Y-122917389D01*
X165090357Y-122839211D01*
X165090355Y-122839208D01*
X165087198Y-122834700D01*
X164925300Y-122672802D01*
X164920792Y-122669645D01*
X164920789Y-122669643D01*
X164842611Y-122614902D01*
X164737749Y-122541477D01*
X164732767Y-122539154D01*
X164732762Y-122539151D01*
X164535225Y-122447039D01*
X164535224Y-122447039D01*
X164530243Y-122444716D01*
X164524935Y-122443294D01*
X164524933Y-122443293D01*
X164314402Y-122386881D01*
X164314400Y-122386881D01*
X164309087Y-122385457D01*
X164081000Y-122365502D01*
X163852913Y-122385457D01*
X163847600Y-122386881D01*
X163847598Y-122386881D01*
X163637067Y-122443293D01*
X163637065Y-122443294D01*
X163631757Y-122444716D01*
X163626776Y-122447039D01*
X163626775Y-122447039D01*
X163429238Y-122539151D01*
X163429233Y-122539154D01*
X163424251Y-122541477D01*
X163319389Y-122614902D01*
X163241211Y-122669643D01*
X163241208Y-122669645D01*
X163236700Y-122672802D01*
X163074802Y-122834700D01*
X163071645Y-122839208D01*
X163071643Y-122839211D01*
X163016902Y-122917389D01*
X162943477Y-123022251D01*
X162941154Y-123027233D01*
X162941151Y-123027238D01*
X162925195Y-123061457D01*
X162878278Y-123114742D01*
X162810001Y-123134203D01*
X162742041Y-123113661D01*
X162696805Y-123061457D01*
X162680849Y-123027238D01*
X162680846Y-123027233D01*
X162678523Y-123022251D01*
X162605098Y-122917389D01*
X162550357Y-122839211D01*
X162550355Y-122839208D01*
X162547198Y-122834700D01*
X162385300Y-122672802D01*
X162380792Y-122669645D01*
X162380789Y-122669643D01*
X162302611Y-122614902D01*
X162197749Y-122541477D01*
X162192767Y-122539154D01*
X162192762Y-122539151D01*
X161995225Y-122447039D01*
X161995224Y-122447039D01*
X161990243Y-122444716D01*
X161984935Y-122443294D01*
X161984933Y-122443293D01*
X161774402Y-122386881D01*
X161774400Y-122386881D01*
X161769087Y-122385457D01*
X161541000Y-122365502D01*
X161312913Y-122385457D01*
X161307600Y-122386881D01*
X161307598Y-122386881D01*
X161097067Y-122443293D01*
X161097065Y-122443294D01*
X161091757Y-122444716D01*
X161086776Y-122447039D01*
X161086775Y-122447039D01*
X160889238Y-122539151D01*
X160889233Y-122539154D01*
X160884251Y-122541477D01*
X160779389Y-122614902D01*
X160701211Y-122669643D01*
X160701208Y-122669645D01*
X160696700Y-122672802D01*
X160534802Y-122834700D01*
X160531645Y-122839208D01*
X160531643Y-122839211D01*
X160476902Y-122917389D01*
X160403477Y-123022251D01*
X160401154Y-123027233D01*
X160401151Y-123027238D01*
X160385195Y-123061457D01*
X160338278Y-123114742D01*
X160270001Y-123134203D01*
X160202041Y-123113661D01*
X160156805Y-123061457D01*
X160140849Y-123027238D01*
X160140846Y-123027233D01*
X160138523Y-123022251D01*
X160065098Y-122917389D01*
X160010357Y-122839211D01*
X160010355Y-122839208D01*
X160007198Y-122834700D01*
X159845300Y-122672802D01*
X159840792Y-122669645D01*
X159840789Y-122669643D01*
X159762611Y-122614902D01*
X159657749Y-122541477D01*
X159652767Y-122539154D01*
X159652762Y-122539151D01*
X159455225Y-122447039D01*
X159455224Y-122447039D01*
X159450243Y-122444716D01*
X159444935Y-122443294D01*
X159444933Y-122443293D01*
X159234402Y-122386881D01*
X159234400Y-122386881D01*
X159229087Y-122385457D01*
X159001000Y-122365502D01*
X158772913Y-122385457D01*
X158767600Y-122386881D01*
X158767598Y-122386881D01*
X158557067Y-122443293D01*
X158557065Y-122443294D01*
X158551757Y-122444716D01*
X158546776Y-122447039D01*
X158546775Y-122447039D01*
X158349238Y-122539151D01*
X158349233Y-122539154D01*
X158344251Y-122541477D01*
X158239389Y-122614902D01*
X158161211Y-122669643D01*
X158161208Y-122669645D01*
X158156700Y-122672802D01*
X157994802Y-122834700D01*
X157991645Y-122839208D01*
X157991643Y-122839211D01*
X157936902Y-122917389D01*
X157863477Y-123022251D01*
X157861154Y-123027233D01*
X157861151Y-123027238D01*
X157845195Y-123061457D01*
X157798278Y-123114742D01*
X157730001Y-123134203D01*
X157662041Y-123113661D01*
X157616805Y-123061457D01*
X157600849Y-123027238D01*
X157600846Y-123027233D01*
X157598523Y-123022251D01*
X157525098Y-122917389D01*
X157470357Y-122839211D01*
X157470355Y-122839208D01*
X157467198Y-122834700D01*
X157305300Y-122672802D01*
X157300792Y-122669645D01*
X157300789Y-122669643D01*
X157222611Y-122614902D01*
X157117749Y-122541477D01*
X157112767Y-122539154D01*
X157112762Y-122539151D01*
X156915225Y-122447039D01*
X156915224Y-122447039D01*
X156910243Y-122444716D01*
X156904935Y-122443294D01*
X156904933Y-122443293D01*
X156694402Y-122386881D01*
X156694400Y-122386881D01*
X156689087Y-122385457D01*
X156461000Y-122365502D01*
X156232913Y-122385457D01*
X156227600Y-122386881D01*
X156227598Y-122386881D01*
X156017067Y-122443293D01*
X156017065Y-122443294D01*
X156011757Y-122444716D01*
X156006776Y-122447039D01*
X156006775Y-122447039D01*
X155809238Y-122539151D01*
X155809233Y-122539154D01*
X155804251Y-122541477D01*
X155699389Y-122614902D01*
X155621211Y-122669643D01*
X155621208Y-122669645D01*
X155616700Y-122672802D01*
X155454802Y-122834700D01*
X155451645Y-122839208D01*
X155451643Y-122839211D01*
X155396902Y-122917389D01*
X155323477Y-123022251D01*
X155321154Y-123027233D01*
X155321151Y-123027238D01*
X155305195Y-123061457D01*
X155258278Y-123114742D01*
X155190001Y-123134203D01*
X155122041Y-123113661D01*
X155076805Y-123061457D01*
X155060849Y-123027238D01*
X155060846Y-123027233D01*
X155058523Y-123022251D01*
X154985098Y-122917389D01*
X154930357Y-122839211D01*
X154930355Y-122839208D01*
X154927198Y-122834700D01*
X154765300Y-122672802D01*
X154760792Y-122669645D01*
X154760789Y-122669643D01*
X154682611Y-122614902D01*
X154577749Y-122541477D01*
X154572767Y-122539154D01*
X154572762Y-122539151D01*
X154375225Y-122447039D01*
X154375224Y-122447039D01*
X154370243Y-122444716D01*
X154364935Y-122443294D01*
X154364933Y-122443293D01*
X154154402Y-122386881D01*
X154154400Y-122386881D01*
X154149087Y-122385457D01*
X153921000Y-122365502D01*
X153692913Y-122385457D01*
X153687600Y-122386881D01*
X153687598Y-122386881D01*
X153477067Y-122443293D01*
X153477065Y-122443294D01*
X153471757Y-122444716D01*
X153466776Y-122447039D01*
X153466775Y-122447039D01*
X153269238Y-122539151D01*
X153269233Y-122539154D01*
X153264251Y-122541477D01*
X153159389Y-122614902D01*
X153081211Y-122669643D01*
X153081208Y-122669645D01*
X153076700Y-122672802D01*
X152914802Y-122834700D01*
X152911645Y-122839208D01*
X152911643Y-122839211D01*
X152856902Y-122917389D01*
X152783477Y-123022251D01*
X152781154Y-123027233D01*
X152781151Y-123027238D01*
X152765195Y-123061457D01*
X152718278Y-123114742D01*
X152650001Y-123134203D01*
X152582041Y-123113661D01*
X152536805Y-123061457D01*
X152520849Y-123027238D01*
X152520846Y-123027233D01*
X152518523Y-123022251D01*
X152445098Y-122917389D01*
X152390357Y-122839211D01*
X152390355Y-122839208D01*
X152387198Y-122834700D01*
X152225300Y-122672802D01*
X152220792Y-122669645D01*
X152220789Y-122669643D01*
X152142611Y-122614902D01*
X152037749Y-122541477D01*
X152032767Y-122539154D01*
X152032762Y-122539151D01*
X151835225Y-122447039D01*
X151835224Y-122447039D01*
X151830243Y-122444716D01*
X151824935Y-122443294D01*
X151824933Y-122443293D01*
X151614402Y-122386881D01*
X151614400Y-122386881D01*
X151609087Y-122385457D01*
X151381000Y-122365502D01*
X151152913Y-122385457D01*
X151147600Y-122386881D01*
X151147598Y-122386881D01*
X150937067Y-122443293D01*
X150937065Y-122443294D01*
X150931757Y-122444716D01*
X150926776Y-122447039D01*
X150926775Y-122447039D01*
X150729238Y-122539151D01*
X150729233Y-122539154D01*
X150724251Y-122541477D01*
X150619389Y-122614902D01*
X150541211Y-122669643D01*
X150541208Y-122669645D01*
X150536700Y-122672802D01*
X150374802Y-122834700D01*
X150371645Y-122839208D01*
X150371643Y-122839211D01*
X150316902Y-122917389D01*
X150243477Y-123022251D01*
X150241154Y-123027233D01*
X150241151Y-123027238D01*
X150225195Y-123061457D01*
X150178278Y-123114742D01*
X150110001Y-123134203D01*
X150042041Y-123113661D01*
X149996805Y-123061457D01*
X149980849Y-123027238D01*
X149980846Y-123027233D01*
X149978523Y-123022251D01*
X149905098Y-122917389D01*
X149850357Y-122839211D01*
X149850355Y-122839208D01*
X149847198Y-122834700D01*
X149685300Y-122672802D01*
X149680792Y-122669645D01*
X149680789Y-122669643D01*
X149602611Y-122614902D01*
X149497749Y-122541477D01*
X149492767Y-122539154D01*
X149492762Y-122539151D01*
X149295225Y-122447039D01*
X149295224Y-122447039D01*
X149290243Y-122444716D01*
X149284935Y-122443294D01*
X149284933Y-122443293D01*
X149074402Y-122386881D01*
X149074400Y-122386881D01*
X149069087Y-122385457D01*
X148841000Y-122365502D01*
X148612913Y-122385457D01*
X148607600Y-122386881D01*
X148607598Y-122386881D01*
X148397067Y-122443293D01*
X148397065Y-122443294D01*
X148391757Y-122444716D01*
X148386776Y-122447039D01*
X148386775Y-122447039D01*
X148189238Y-122539151D01*
X148189233Y-122539154D01*
X148184251Y-122541477D01*
X148079389Y-122614902D01*
X148001211Y-122669643D01*
X148001208Y-122669645D01*
X147996700Y-122672802D01*
X147834802Y-122834700D01*
X147831645Y-122839208D01*
X147831643Y-122839211D01*
X147776902Y-122917389D01*
X147703477Y-123022251D01*
X147701154Y-123027233D01*
X147701151Y-123027238D01*
X147685195Y-123061457D01*
X147638278Y-123114742D01*
X147570001Y-123134203D01*
X147502041Y-123113661D01*
X147456805Y-123061457D01*
X147440849Y-123027238D01*
X147440846Y-123027233D01*
X147438523Y-123022251D01*
X147365098Y-122917389D01*
X147310357Y-122839211D01*
X147310355Y-122839208D01*
X147307198Y-122834700D01*
X147145300Y-122672802D01*
X147140792Y-122669645D01*
X147140789Y-122669643D01*
X147062611Y-122614902D01*
X146957749Y-122541477D01*
X146952767Y-122539154D01*
X146952762Y-122539151D01*
X146755225Y-122447039D01*
X146755224Y-122447039D01*
X146750243Y-122444716D01*
X146744935Y-122443294D01*
X146744933Y-122443293D01*
X146534402Y-122386881D01*
X146534400Y-122386881D01*
X146529087Y-122385457D01*
X146301000Y-122365502D01*
X146072913Y-122385457D01*
X146067600Y-122386881D01*
X146067598Y-122386881D01*
X145857067Y-122443293D01*
X145857065Y-122443294D01*
X145851757Y-122444716D01*
X145846776Y-122447039D01*
X145846775Y-122447039D01*
X145649238Y-122539151D01*
X145649233Y-122539154D01*
X145644251Y-122541477D01*
X145539389Y-122614902D01*
X145461211Y-122669643D01*
X145461208Y-122669645D01*
X145456700Y-122672802D01*
X145294802Y-122834700D01*
X145291643Y-122839211D01*
X145288108Y-122843424D01*
X145287140Y-122842612D01*
X145236506Y-122883090D01*
X145165887Y-122890404D01*
X145102524Y-122858376D01*
X145066536Y-122797177D01*
X145063480Y-122780099D01*
X145063105Y-122776648D01*
X145059479Y-122761396D01*
X145014324Y-122640946D01*
X145005786Y-122625351D01*
X144929285Y-122523276D01*
X144916724Y-122510715D01*
X144814649Y-122434214D01*
X144799054Y-122425676D01*
X144678606Y-122380522D01*
X144663351Y-122376895D01*
X144612486Y-122371369D01*
X144605672Y-122371000D01*
X144033115Y-122371000D01*
X144017876Y-122375475D01*
X144016671Y-122376865D01*
X144015000Y-122384548D01*
X144015000Y-125768884D01*
X144019475Y-125784123D01*
X144020865Y-125785328D01*
X144028548Y-125786999D01*
X144605669Y-125786999D01*
X144612490Y-125786629D01*
X144663352Y-125781105D01*
X144678604Y-125777479D01*
X144799054Y-125732324D01*
X144814649Y-125723786D01*
X144916724Y-125647285D01*
X144929285Y-125634724D01*
X145005786Y-125532649D01*
X145014324Y-125517054D01*
X145059478Y-125396606D01*
X145063104Y-125381357D01*
X145063479Y-125377904D01*
X145064522Y-125375394D01*
X145064932Y-125373669D01*
X145065211Y-125373735D01*
X145090719Y-125312341D01*
X145149080Y-125271912D01*
X145220034Y-125269454D01*
X145281054Y-125305747D01*
X145290344Y-125317240D01*
X145291641Y-125318786D01*
X145294802Y-125323300D01*
X145456700Y-125485198D01*
X145461208Y-125488355D01*
X145461211Y-125488357D01*
X145502195Y-125517054D01*
X145644251Y-125616523D01*
X145649233Y-125618846D01*
X145649238Y-125618849D01*
X145846775Y-125710961D01*
X145851757Y-125713284D01*
X145857065Y-125714706D01*
X145857067Y-125714707D01*
X146067598Y-125771119D01*
X146067600Y-125771119D01*
X146072913Y-125772543D01*
X146301000Y-125792498D01*
X146529087Y-125772543D01*
X146534400Y-125771119D01*
X146534402Y-125771119D01*
X146744933Y-125714707D01*
X146744935Y-125714706D01*
X146750243Y-125713284D01*
X146755225Y-125710961D01*
X146952762Y-125618849D01*
X146952767Y-125618846D01*
X146957749Y-125616523D01*
X147099805Y-125517054D01*
X147140789Y-125488357D01*
X147140792Y-125488355D01*
X147145300Y-125485198D01*
X147307198Y-125323300D01*
X147311442Y-125317240D01*
X147418938Y-125163719D01*
X147438523Y-125135749D01*
X147440846Y-125130767D01*
X147440849Y-125130762D01*
X147456805Y-125096543D01*
X147503722Y-125043258D01*
X147571999Y-125023797D01*
X147639959Y-125044339D01*
X147685195Y-125096543D01*
X147701151Y-125130762D01*
X147701154Y-125130767D01*
X147703477Y-125135749D01*
X147723062Y-125163719D01*
X147830559Y-125317240D01*
X147834802Y-125323300D01*
X147996700Y-125485198D01*
X148001208Y-125488355D01*
X148001211Y-125488357D01*
X148042195Y-125517054D01*
X148184251Y-125616523D01*
X148189233Y-125618846D01*
X148189238Y-125618849D01*
X148386775Y-125710961D01*
X148391757Y-125713284D01*
X148397065Y-125714706D01*
X148397067Y-125714707D01*
X148607598Y-125771119D01*
X148607600Y-125771119D01*
X148612913Y-125772543D01*
X148841000Y-125792498D01*
X149069087Y-125772543D01*
X149074400Y-125771119D01*
X149074402Y-125771119D01*
X149284933Y-125714707D01*
X149284935Y-125714706D01*
X149290243Y-125713284D01*
X149295225Y-125710961D01*
X149492762Y-125618849D01*
X149492767Y-125618846D01*
X149497749Y-125616523D01*
X149639805Y-125517054D01*
X149680789Y-125488357D01*
X149680792Y-125488355D01*
X149685300Y-125485198D01*
X149847198Y-125323300D01*
X149851442Y-125317240D01*
X149958938Y-125163719D01*
X149978523Y-125135749D01*
X149980846Y-125130767D01*
X149980849Y-125130762D01*
X149996805Y-125096543D01*
X150043722Y-125043258D01*
X150111999Y-125023797D01*
X150179959Y-125044339D01*
X150225195Y-125096543D01*
X150241151Y-125130762D01*
X150241154Y-125130767D01*
X150243477Y-125135749D01*
X150263062Y-125163719D01*
X150370559Y-125317240D01*
X150374802Y-125323300D01*
X150536700Y-125485198D01*
X150541208Y-125488355D01*
X150541211Y-125488357D01*
X150582195Y-125517054D01*
X150724251Y-125616523D01*
X150729233Y-125618846D01*
X150729238Y-125618849D01*
X150926775Y-125710961D01*
X150931757Y-125713284D01*
X150937065Y-125714706D01*
X150937067Y-125714707D01*
X151147598Y-125771119D01*
X151147600Y-125771119D01*
X151152913Y-125772543D01*
X151381000Y-125792498D01*
X151609087Y-125772543D01*
X151614400Y-125771119D01*
X151614402Y-125771119D01*
X151824933Y-125714707D01*
X151824935Y-125714706D01*
X151830243Y-125713284D01*
X151835225Y-125710961D01*
X152032762Y-125618849D01*
X152032767Y-125618846D01*
X152037749Y-125616523D01*
X152179805Y-125517054D01*
X152220789Y-125488357D01*
X152220792Y-125488355D01*
X152225300Y-125485198D01*
X152387198Y-125323300D01*
X152391442Y-125317240D01*
X152498938Y-125163719D01*
X152518523Y-125135749D01*
X152520846Y-125130767D01*
X152520849Y-125130762D01*
X152536805Y-125096543D01*
X152583722Y-125043258D01*
X152651999Y-125023797D01*
X152719959Y-125044339D01*
X152765195Y-125096543D01*
X152781151Y-125130762D01*
X152781154Y-125130767D01*
X152783477Y-125135749D01*
X152803062Y-125163719D01*
X152910559Y-125317240D01*
X152914802Y-125323300D01*
X153076700Y-125485198D01*
X153081208Y-125488355D01*
X153081211Y-125488357D01*
X153122195Y-125517054D01*
X153264251Y-125616523D01*
X153269233Y-125618846D01*
X153269238Y-125618849D01*
X153466775Y-125710961D01*
X153471757Y-125713284D01*
X153477065Y-125714706D01*
X153477067Y-125714707D01*
X153687598Y-125771119D01*
X153687600Y-125771119D01*
X153692913Y-125772543D01*
X153921000Y-125792498D01*
X154149087Y-125772543D01*
X154154400Y-125771119D01*
X154154402Y-125771119D01*
X154364933Y-125714707D01*
X154364935Y-125714706D01*
X154370243Y-125713284D01*
X154375225Y-125710961D01*
X154572762Y-125618849D01*
X154572767Y-125618846D01*
X154577749Y-125616523D01*
X154719805Y-125517054D01*
X154760789Y-125488357D01*
X154760792Y-125488355D01*
X154765300Y-125485198D01*
X154927198Y-125323300D01*
X154931442Y-125317240D01*
X155038938Y-125163719D01*
X155058523Y-125135749D01*
X155060846Y-125130767D01*
X155060849Y-125130762D01*
X155076805Y-125096543D01*
X155123722Y-125043258D01*
X155191999Y-125023797D01*
X155259959Y-125044339D01*
X155305195Y-125096543D01*
X155321151Y-125130762D01*
X155321154Y-125130767D01*
X155323477Y-125135749D01*
X155343062Y-125163719D01*
X155450559Y-125317240D01*
X155454802Y-125323300D01*
X155616700Y-125485198D01*
X155621208Y-125488355D01*
X155621211Y-125488357D01*
X155662195Y-125517054D01*
X155804251Y-125616523D01*
X155809233Y-125618846D01*
X155809238Y-125618849D01*
X156006775Y-125710961D01*
X156011757Y-125713284D01*
X156017065Y-125714706D01*
X156017067Y-125714707D01*
X156227598Y-125771119D01*
X156227600Y-125771119D01*
X156232913Y-125772543D01*
X156461000Y-125792498D01*
X156689087Y-125772543D01*
X156694400Y-125771119D01*
X156694402Y-125771119D01*
X156904933Y-125714707D01*
X156904935Y-125714706D01*
X156910243Y-125713284D01*
X156915225Y-125710961D01*
X157112762Y-125618849D01*
X157112767Y-125618846D01*
X157117749Y-125616523D01*
X157259805Y-125517054D01*
X157300789Y-125488357D01*
X157300792Y-125488355D01*
X157305300Y-125485198D01*
X157467198Y-125323300D01*
X157471442Y-125317240D01*
X157578938Y-125163719D01*
X157598523Y-125135749D01*
X157600846Y-125130767D01*
X157600849Y-125130762D01*
X157616805Y-125096543D01*
X157663722Y-125043258D01*
X157731999Y-125023797D01*
X157799959Y-125044339D01*
X157845195Y-125096543D01*
X157861151Y-125130762D01*
X157861154Y-125130767D01*
X157863477Y-125135749D01*
X157883062Y-125163719D01*
X157990559Y-125317240D01*
X157994802Y-125323300D01*
X158156700Y-125485198D01*
X158161208Y-125488355D01*
X158161211Y-125488357D01*
X158202195Y-125517054D01*
X158344251Y-125616523D01*
X158349233Y-125618846D01*
X158349238Y-125618849D01*
X158546775Y-125710961D01*
X158551757Y-125713284D01*
X158557065Y-125714706D01*
X158557067Y-125714707D01*
X158767598Y-125771119D01*
X158767600Y-125771119D01*
X158772913Y-125772543D01*
X159001000Y-125792498D01*
X159229087Y-125772543D01*
X159234400Y-125771119D01*
X159234402Y-125771119D01*
X159444933Y-125714707D01*
X159444935Y-125714706D01*
X159450243Y-125713284D01*
X159455225Y-125710961D01*
X159652762Y-125618849D01*
X159652767Y-125618846D01*
X159657749Y-125616523D01*
X159799805Y-125517054D01*
X159840789Y-125488357D01*
X159840792Y-125488355D01*
X159845300Y-125485198D01*
X160007198Y-125323300D01*
X160011442Y-125317240D01*
X160118938Y-125163719D01*
X160138523Y-125135749D01*
X160140846Y-125130767D01*
X160140849Y-125130762D01*
X160156805Y-125096543D01*
X160203722Y-125043258D01*
X160271999Y-125023797D01*
X160339959Y-125044339D01*
X160385195Y-125096543D01*
X160401151Y-125130762D01*
X160401154Y-125130767D01*
X160403477Y-125135749D01*
X160423062Y-125163719D01*
X160530559Y-125317240D01*
X160534802Y-125323300D01*
X160696700Y-125485198D01*
X160701208Y-125488355D01*
X160701211Y-125488357D01*
X160742195Y-125517054D01*
X160884251Y-125616523D01*
X160889233Y-125618846D01*
X160889238Y-125618849D01*
X161086775Y-125710961D01*
X161091757Y-125713284D01*
X161097065Y-125714706D01*
X161097067Y-125714707D01*
X161307598Y-125771119D01*
X161307600Y-125771119D01*
X161312913Y-125772543D01*
X161541000Y-125792498D01*
X161769087Y-125772543D01*
X161774400Y-125771119D01*
X161774402Y-125771119D01*
X161984933Y-125714707D01*
X161984935Y-125714706D01*
X161990243Y-125713284D01*
X161995225Y-125710961D01*
X162192762Y-125618849D01*
X162192767Y-125618846D01*
X162197749Y-125616523D01*
X162339805Y-125517054D01*
X162380789Y-125488357D01*
X162380792Y-125488355D01*
X162385300Y-125485198D01*
X162547198Y-125323300D01*
X162551442Y-125317240D01*
X162658938Y-125163719D01*
X162678523Y-125135749D01*
X162680846Y-125130767D01*
X162680849Y-125130762D01*
X162696805Y-125096543D01*
X162743722Y-125043258D01*
X162811999Y-125023797D01*
X162879959Y-125044339D01*
X162925195Y-125096543D01*
X162941151Y-125130762D01*
X162941154Y-125130767D01*
X162943477Y-125135749D01*
X162963062Y-125163719D01*
X163070559Y-125317240D01*
X163074802Y-125323300D01*
X163236700Y-125485198D01*
X163241208Y-125488355D01*
X163241211Y-125488357D01*
X163282195Y-125517054D01*
X163424251Y-125616523D01*
X163429233Y-125618846D01*
X163429238Y-125618849D01*
X163626775Y-125710961D01*
X163631757Y-125713284D01*
X163637065Y-125714706D01*
X163637067Y-125714707D01*
X163847598Y-125771119D01*
X163847600Y-125771119D01*
X163852913Y-125772543D01*
X164081000Y-125792498D01*
X164309087Y-125772543D01*
X164314400Y-125771119D01*
X164314402Y-125771119D01*
X164524933Y-125714707D01*
X164524935Y-125714706D01*
X164530243Y-125713284D01*
X164535225Y-125710961D01*
X164732762Y-125618849D01*
X164732767Y-125618846D01*
X164737749Y-125616523D01*
X164879805Y-125517054D01*
X164920789Y-125488357D01*
X164920792Y-125488355D01*
X164925300Y-125485198D01*
X165087198Y-125323300D01*
X165091442Y-125317240D01*
X165198938Y-125163719D01*
X165218523Y-125135749D01*
X165220846Y-125130767D01*
X165220849Y-125130762D01*
X165236805Y-125096543D01*
X165283722Y-125043258D01*
X165351999Y-125023797D01*
X165419959Y-125044339D01*
X165465195Y-125096543D01*
X165481151Y-125130762D01*
X165481154Y-125130767D01*
X165483477Y-125135749D01*
X165503062Y-125163719D01*
X165610559Y-125317240D01*
X165614802Y-125323300D01*
X165776700Y-125485198D01*
X165781208Y-125488355D01*
X165781211Y-125488357D01*
X165822195Y-125517054D01*
X165964251Y-125616523D01*
X165969233Y-125618846D01*
X165969238Y-125618849D01*
X166166775Y-125710961D01*
X166171757Y-125713284D01*
X166177065Y-125714706D01*
X166177067Y-125714707D01*
X166387598Y-125771119D01*
X166387600Y-125771119D01*
X166392913Y-125772543D01*
X166621000Y-125792498D01*
X166849087Y-125772543D01*
X166854400Y-125771119D01*
X166854402Y-125771119D01*
X167064933Y-125714707D01*
X167064935Y-125714706D01*
X167070243Y-125713284D01*
X167075225Y-125710961D01*
X167272762Y-125618849D01*
X167272767Y-125618846D01*
X167277749Y-125616523D01*
X167419805Y-125517054D01*
X167460789Y-125488357D01*
X167460792Y-125488355D01*
X167465300Y-125485198D01*
X167627198Y-125323300D01*
X167631442Y-125317240D01*
X167738938Y-125163719D01*
X167758523Y-125135749D01*
X167760846Y-125130767D01*
X167760849Y-125130762D01*
X167776805Y-125096543D01*
X167823722Y-125043258D01*
X167891999Y-125023797D01*
X167959959Y-125044339D01*
X168005195Y-125096543D01*
X168021151Y-125130762D01*
X168021154Y-125130767D01*
X168023477Y-125135749D01*
X168043062Y-125163719D01*
X168150559Y-125317240D01*
X168154802Y-125323300D01*
X168316700Y-125485198D01*
X168321208Y-125488355D01*
X168321211Y-125488357D01*
X168362195Y-125517054D01*
X168504251Y-125616523D01*
X168509233Y-125618846D01*
X168509238Y-125618849D01*
X168706775Y-125710961D01*
X168711757Y-125713284D01*
X168717065Y-125714706D01*
X168717067Y-125714707D01*
X168927598Y-125771119D01*
X168927600Y-125771119D01*
X168932913Y-125772543D01*
X169161000Y-125792498D01*
X169389087Y-125772543D01*
X169394400Y-125771119D01*
X169394402Y-125771119D01*
X169604933Y-125714707D01*
X169604935Y-125714706D01*
X169610243Y-125713284D01*
X169615225Y-125710961D01*
X169812762Y-125618849D01*
X169812767Y-125618846D01*
X169817749Y-125616523D01*
X169959805Y-125517054D01*
X170000789Y-125488357D01*
X170000792Y-125488355D01*
X170005300Y-125485198D01*
X170167198Y-125323300D01*
X170171442Y-125317240D01*
X170278938Y-125163719D01*
X170298523Y-125135749D01*
X170300846Y-125130767D01*
X170300849Y-125130762D01*
X170316805Y-125096543D01*
X170363722Y-125043258D01*
X170431999Y-125023797D01*
X170499959Y-125044339D01*
X170545195Y-125096543D01*
X170561151Y-125130762D01*
X170561154Y-125130767D01*
X170563477Y-125135749D01*
X170583062Y-125163719D01*
X170690559Y-125317240D01*
X170694802Y-125323300D01*
X170856700Y-125485198D01*
X170861208Y-125488355D01*
X170861211Y-125488357D01*
X170902195Y-125517054D01*
X171044251Y-125616523D01*
X171049233Y-125618846D01*
X171049238Y-125618849D01*
X171246775Y-125710961D01*
X171251757Y-125713284D01*
X171257065Y-125714706D01*
X171257067Y-125714707D01*
X171467598Y-125771119D01*
X171467600Y-125771119D01*
X171472913Y-125772543D01*
X171701000Y-125792498D01*
X171929087Y-125772543D01*
X171934400Y-125771119D01*
X171934402Y-125771119D01*
X172144933Y-125714707D01*
X172144935Y-125714706D01*
X172150243Y-125713284D01*
X172155225Y-125710961D01*
X172352762Y-125618849D01*
X172352767Y-125618846D01*
X172357749Y-125616523D01*
X172499805Y-125517054D01*
X172540789Y-125488357D01*
X172540792Y-125488355D01*
X172545300Y-125485198D01*
X172707198Y-125323300D01*
X172711442Y-125317240D01*
X172818938Y-125163719D01*
X172838523Y-125135749D01*
X172840846Y-125130767D01*
X172840849Y-125130762D01*
X172856805Y-125096543D01*
X172903722Y-125043258D01*
X172971999Y-125023797D01*
X173039959Y-125044339D01*
X173085195Y-125096543D01*
X173101151Y-125130762D01*
X173101154Y-125130767D01*
X173103477Y-125135749D01*
X173123062Y-125163719D01*
X173230559Y-125317240D01*
X173234802Y-125323300D01*
X173396700Y-125485198D01*
X173401208Y-125488355D01*
X173401211Y-125488357D01*
X173442195Y-125517054D01*
X173584251Y-125616523D01*
X173589233Y-125618846D01*
X173589238Y-125618849D01*
X173786775Y-125710961D01*
X173791757Y-125713284D01*
X173797065Y-125714706D01*
X173797067Y-125714707D01*
X174007598Y-125771119D01*
X174007600Y-125771119D01*
X174012913Y-125772543D01*
X174241000Y-125792498D01*
X174469087Y-125772543D01*
X174474400Y-125771119D01*
X174474402Y-125771119D01*
X174684933Y-125714707D01*
X174684935Y-125714706D01*
X174690243Y-125713284D01*
X174695225Y-125710961D01*
X174892762Y-125618849D01*
X174892767Y-125618846D01*
X174897749Y-125616523D01*
X175039805Y-125517054D01*
X175080789Y-125488357D01*
X175080792Y-125488355D01*
X175085300Y-125485198D01*
X175247198Y-125323300D01*
X175251442Y-125317240D01*
X175358938Y-125163719D01*
X175378523Y-125135749D01*
X175380846Y-125130767D01*
X175380849Y-125130762D01*
X175396805Y-125096543D01*
X175443722Y-125043258D01*
X175511999Y-125023797D01*
X175579959Y-125044339D01*
X175625195Y-125096543D01*
X175641151Y-125130762D01*
X175641154Y-125130767D01*
X175643477Y-125135749D01*
X175663062Y-125163719D01*
X175770559Y-125317240D01*
X175774802Y-125323300D01*
X175936700Y-125485198D01*
X175941208Y-125488355D01*
X175941211Y-125488357D01*
X175982195Y-125517054D01*
X176124251Y-125616523D01*
X176129233Y-125618846D01*
X176129238Y-125618849D01*
X176326775Y-125710961D01*
X176331757Y-125713284D01*
X176337065Y-125714706D01*
X176337067Y-125714707D01*
X176547598Y-125771119D01*
X176547600Y-125771119D01*
X176552913Y-125772543D01*
X176781000Y-125792498D01*
X177009087Y-125772543D01*
X177014400Y-125771119D01*
X177014402Y-125771119D01*
X177224933Y-125714707D01*
X177224935Y-125714706D01*
X177230243Y-125713284D01*
X177235225Y-125710961D01*
X177432762Y-125618849D01*
X177432767Y-125618846D01*
X177437749Y-125616523D01*
X177579805Y-125517054D01*
X177620789Y-125488357D01*
X177620792Y-125488355D01*
X177625300Y-125485198D01*
X177787198Y-125323300D01*
X177791442Y-125317240D01*
X177898938Y-125163719D01*
X177918523Y-125135749D01*
X177920846Y-125130767D01*
X177920849Y-125130762D01*
X177936805Y-125096543D01*
X177983722Y-125043258D01*
X178051999Y-125023797D01*
X178119959Y-125044339D01*
X178165195Y-125096543D01*
X178181151Y-125130762D01*
X178181154Y-125130767D01*
X178183477Y-125135749D01*
X178203062Y-125163719D01*
X178310559Y-125317240D01*
X178314802Y-125323300D01*
X178476700Y-125485198D01*
X178481208Y-125488355D01*
X178481211Y-125488357D01*
X178522195Y-125517054D01*
X178664251Y-125616523D01*
X178669233Y-125618846D01*
X178669238Y-125618849D01*
X178866775Y-125710961D01*
X178871757Y-125713284D01*
X178877065Y-125714706D01*
X178877067Y-125714707D01*
X179087598Y-125771119D01*
X179087600Y-125771119D01*
X179092913Y-125772543D01*
X179321000Y-125792498D01*
X179549087Y-125772543D01*
X179554400Y-125771119D01*
X179554402Y-125771119D01*
X179764933Y-125714707D01*
X179764935Y-125714706D01*
X179770243Y-125713284D01*
X179775225Y-125710961D01*
X179972762Y-125618849D01*
X179972767Y-125618846D01*
X179977749Y-125616523D01*
X180119805Y-125517054D01*
X180160789Y-125488357D01*
X180160792Y-125488355D01*
X180165300Y-125485198D01*
X180327198Y-125323300D01*
X180331442Y-125317240D01*
X180438938Y-125163719D01*
X180458523Y-125135749D01*
X180460846Y-125130767D01*
X180460849Y-125130762D01*
X180476805Y-125096543D01*
X180523722Y-125043258D01*
X180591999Y-125023797D01*
X180659959Y-125044339D01*
X180705195Y-125096543D01*
X180721151Y-125130762D01*
X180721154Y-125130767D01*
X180723477Y-125135749D01*
X180743062Y-125163719D01*
X180850559Y-125317240D01*
X180854802Y-125323300D01*
X181016700Y-125485198D01*
X181021208Y-125488355D01*
X181021211Y-125488357D01*
X181062195Y-125517054D01*
X181204251Y-125616523D01*
X181209233Y-125618846D01*
X181209238Y-125618849D01*
X181406775Y-125710961D01*
X181411757Y-125713284D01*
X181417065Y-125714706D01*
X181417067Y-125714707D01*
X181627598Y-125771119D01*
X181627600Y-125771119D01*
X181632913Y-125772543D01*
X181861000Y-125792498D01*
X182089087Y-125772543D01*
X182094400Y-125771119D01*
X182094402Y-125771119D01*
X182304933Y-125714707D01*
X182304935Y-125714706D01*
X182310243Y-125713284D01*
X182315225Y-125710961D01*
X182512762Y-125618849D01*
X182512767Y-125618846D01*
X182517749Y-125616523D01*
X182659805Y-125517054D01*
X182700789Y-125488357D01*
X182700792Y-125488355D01*
X182705300Y-125485198D01*
X182867198Y-125323300D01*
X182871442Y-125317240D01*
X182978938Y-125163719D01*
X182998523Y-125135749D01*
X183000846Y-125130767D01*
X183000849Y-125130762D01*
X183016805Y-125096543D01*
X183063722Y-125043258D01*
X183131999Y-125023797D01*
X183199959Y-125044339D01*
X183245195Y-125096543D01*
X183261151Y-125130762D01*
X183261154Y-125130767D01*
X183263477Y-125135749D01*
X183283062Y-125163719D01*
X183390559Y-125317240D01*
X183394802Y-125323300D01*
X183556700Y-125485198D01*
X183561208Y-125488355D01*
X183561211Y-125488357D01*
X183602195Y-125517054D01*
X183744251Y-125616523D01*
X183749233Y-125618846D01*
X183749238Y-125618849D01*
X183946775Y-125710961D01*
X183951757Y-125713284D01*
X183957065Y-125714706D01*
X183957067Y-125714707D01*
X184167598Y-125771119D01*
X184167600Y-125771119D01*
X184172913Y-125772543D01*
X184401000Y-125792498D01*
X184629087Y-125772543D01*
X184634400Y-125771119D01*
X184634402Y-125771119D01*
X184844933Y-125714707D01*
X184844935Y-125714706D01*
X184850243Y-125713284D01*
X184855225Y-125710961D01*
X185052762Y-125618849D01*
X185052767Y-125618846D01*
X185057749Y-125616523D01*
X185199805Y-125517054D01*
X185240789Y-125488357D01*
X185240792Y-125488355D01*
X185245300Y-125485198D01*
X185407198Y-125323300D01*
X185411442Y-125317240D01*
X185518938Y-125163719D01*
X185538523Y-125135749D01*
X185540846Y-125130767D01*
X185540849Y-125130762D01*
X185556805Y-125096543D01*
X185603722Y-125043258D01*
X185671999Y-125023797D01*
X185739959Y-125044339D01*
X185785195Y-125096543D01*
X185801151Y-125130762D01*
X185801154Y-125130767D01*
X185803477Y-125135749D01*
X185823062Y-125163719D01*
X185930559Y-125317240D01*
X185934802Y-125323300D01*
X186096700Y-125485198D01*
X186101208Y-125488355D01*
X186101211Y-125488357D01*
X186142195Y-125517054D01*
X186284251Y-125616523D01*
X186289233Y-125618846D01*
X186289238Y-125618849D01*
X186486775Y-125710961D01*
X186491757Y-125713284D01*
X186497065Y-125714706D01*
X186497067Y-125714707D01*
X186707598Y-125771119D01*
X186707600Y-125771119D01*
X186712913Y-125772543D01*
X186941000Y-125792498D01*
X187169087Y-125772543D01*
X187174400Y-125771119D01*
X187174402Y-125771119D01*
X187384933Y-125714707D01*
X187384935Y-125714706D01*
X187390243Y-125713284D01*
X187395225Y-125710961D01*
X187592762Y-125618849D01*
X187592767Y-125618846D01*
X187597749Y-125616523D01*
X187739805Y-125517054D01*
X187780789Y-125488357D01*
X187780792Y-125488355D01*
X187785300Y-125485198D01*
X187947198Y-125323300D01*
X187951442Y-125317240D01*
X188058938Y-125163719D01*
X188078523Y-125135749D01*
X188080846Y-125130767D01*
X188080849Y-125130762D01*
X188096805Y-125096543D01*
X188143722Y-125043258D01*
X188211999Y-125023797D01*
X188279959Y-125044339D01*
X188325195Y-125096543D01*
X188341151Y-125130762D01*
X188341154Y-125130767D01*
X188343477Y-125135749D01*
X188363062Y-125163719D01*
X188470559Y-125317240D01*
X188474802Y-125323300D01*
X188636700Y-125485198D01*
X188641208Y-125488355D01*
X188641211Y-125488357D01*
X188682195Y-125517054D01*
X188824251Y-125616523D01*
X188829233Y-125618846D01*
X188829238Y-125618849D01*
X189026775Y-125710961D01*
X189031757Y-125713284D01*
X189037065Y-125714706D01*
X189037067Y-125714707D01*
X189247598Y-125771119D01*
X189247600Y-125771119D01*
X189252913Y-125772543D01*
X189481000Y-125792498D01*
X189709087Y-125772543D01*
X189714400Y-125771119D01*
X189714402Y-125771119D01*
X189924933Y-125714707D01*
X189924935Y-125714706D01*
X189930243Y-125713284D01*
X189935225Y-125710961D01*
X190132762Y-125618849D01*
X190132767Y-125618846D01*
X190137749Y-125616523D01*
X190279805Y-125517054D01*
X190320789Y-125488357D01*
X190320792Y-125488355D01*
X190325300Y-125485198D01*
X190487198Y-125323300D01*
X190491442Y-125317240D01*
X190598938Y-125163719D01*
X190618523Y-125135749D01*
X190620846Y-125130767D01*
X190620849Y-125130762D01*
X190636805Y-125096543D01*
X190683722Y-125043258D01*
X190751999Y-125023797D01*
X190819959Y-125044339D01*
X190865195Y-125096543D01*
X190881151Y-125130762D01*
X190881154Y-125130767D01*
X190883477Y-125135749D01*
X190903062Y-125163719D01*
X191010559Y-125317240D01*
X191014802Y-125323300D01*
X191176700Y-125485198D01*
X191181208Y-125488355D01*
X191181211Y-125488357D01*
X191222195Y-125517054D01*
X191364251Y-125616523D01*
X191369233Y-125618846D01*
X191369238Y-125618849D01*
X191566775Y-125710961D01*
X191571757Y-125713284D01*
X191577065Y-125714706D01*
X191577067Y-125714707D01*
X191787598Y-125771119D01*
X191787600Y-125771119D01*
X191792913Y-125772543D01*
X192021000Y-125792498D01*
X192026475Y-125792019D01*
X192026476Y-125792019D01*
X192140519Y-125782042D01*
X192210124Y-125796032D01*
X192261116Y-125845431D01*
X192277500Y-125907563D01*
X192277500Y-135614144D01*
X192257498Y-135682265D01*
X192203842Y-135728758D01*
X192133568Y-135738862D01*
X192068988Y-135709368D01*
X192046946Y-135682047D01*
X192046615Y-135682295D01*
X192020329Y-135647222D01*
X191959261Y-135565739D01*
X191842705Y-135478385D01*
X191706316Y-135427255D01*
X191644134Y-135420500D01*
X189847866Y-135420500D01*
X189785684Y-135427255D01*
X189649295Y-135478385D01*
X189532739Y-135565739D01*
X189445385Y-135682295D01*
X189442233Y-135690704D01*
X189437923Y-135698575D01*
X189436259Y-135697664D01*
X189400337Y-135745490D01*
X189333776Y-135770193D01*
X189324991Y-135770500D01*
X150575924Y-135770500D01*
X150507803Y-135750498D01*
X150486829Y-135733595D01*
X140991405Y-126238171D01*
X140957379Y-126175859D01*
X140954500Y-126149076D01*
X140954500Y-125323669D01*
X142453001Y-125323669D01*
X142453371Y-125330490D01*
X142458895Y-125381352D01*
X142462521Y-125396604D01*
X142507676Y-125517054D01*
X142516214Y-125532649D01*
X142592715Y-125634724D01*
X142605276Y-125647285D01*
X142707351Y-125723786D01*
X142722946Y-125732324D01*
X142843394Y-125777478D01*
X142858649Y-125781105D01*
X142909514Y-125786631D01*
X142916328Y-125787000D01*
X143488885Y-125787000D01*
X143504124Y-125782525D01*
X143505329Y-125781135D01*
X143507000Y-125773452D01*
X143507000Y-124351115D01*
X143502525Y-124335876D01*
X143501135Y-124334671D01*
X143493452Y-124333000D01*
X142471116Y-124333000D01*
X142455877Y-124337475D01*
X142454672Y-124338865D01*
X142453001Y-124346548D01*
X142453001Y-125323669D01*
X140954500Y-125323669D01*
X140954500Y-123806885D01*
X142453000Y-123806885D01*
X142457475Y-123822124D01*
X142458865Y-123823329D01*
X142466548Y-123825000D01*
X143488885Y-123825000D01*
X143504124Y-123820525D01*
X143505329Y-123819135D01*
X143507000Y-123811452D01*
X143507000Y-122389116D01*
X143502525Y-122373877D01*
X143501135Y-122372672D01*
X143493452Y-122371001D01*
X142916331Y-122371001D01*
X142909510Y-122371371D01*
X142858648Y-122376895D01*
X142843396Y-122380521D01*
X142722946Y-122425676D01*
X142707351Y-122434214D01*
X142605276Y-122510715D01*
X142592715Y-122523276D01*
X142516214Y-122625351D01*
X142507676Y-122640946D01*
X142462522Y-122761394D01*
X142458895Y-122776649D01*
X142453369Y-122827514D01*
X142453000Y-122834328D01*
X142453000Y-123806885D01*
X140954500Y-123806885D01*
X140954500Y-101688925D01*
X140974502Y-101620804D01*
X140991405Y-101599830D01*
X142622274Y-99968962D01*
X142684586Y-99934936D01*
X142755402Y-99940001D01*
X142800464Y-99968962D01*
X142916700Y-100085198D01*
X142921208Y-100088355D01*
X142921211Y-100088357D01*
X142999389Y-100143098D01*
X143104251Y-100216523D01*
X143109233Y-100218846D01*
X143109238Y-100218849D01*
X143306775Y-100310961D01*
X143311757Y-100313284D01*
X143317065Y-100314706D01*
X143317067Y-100314707D01*
X143527598Y-100371119D01*
X143527600Y-100371119D01*
X143532913Y-100372543D01*
X143761000Y-100392498D01*
X143989087Y-100372543D01*
X143994400Y-100371119D01*
X143994402Y-100371119D01*
X144204933Y-100314707D01*
X144204935Y-100314706D01*
X144210243Y-100313284D01*
X144215225Y-100310961D01*
X144412762Y-100218849D01*
X144412767Y-100218846D01*
X144417749Y-100216523D01*
X144522611Y-100143098D01*
X144600789Y-100088357D01*
X144600792Y-100088355D01*
X144605300Y-100085198D01*
X144767198Y-99923300D01*
X144898523Y-99735749D01*
X144900846Y-99730767D01*
X144900849Y-99730762D01*
X144916805Y-99696543D01*
X144963722Y-99643258D01*
X145031999Y-99623797D01*
X145099959Y-99644339D01*
X145145195Y-99696543D01*
X145161151Y-99730762D01*
X145161154Y-99730767D01*
X145163477Y-99735749D01*
X145294802Y-99923300D01*
X145456700Y-100085198D01*
X145461208Y-100088355D01*
X145461211Y-100088357D01*
X145539389Y-100143098D01*
X145644251Y-100216523D01*
X145649233Y-100218846D01*
X145649238Y-100218849D01*
X145846775Y-100310961D01*
X145851757Y-100313284D01*
X145857065Y-100314706D01*
X145857067Y-100314707D01*
X146067598Y-100371119D01*
X146067600Y-100371119D01*
X146072913Y-100372543D01*
X146301000Y-100392498D01*
X146529087Y-100372543D01*
X146534400Y-100371119D01*
X146534402Y-100371119D01*
X146744933Y-100314707D01*
X146744935Y-100314706D01*
X146750243Y-100313284D01*
X146755225Y-100310961D01*
X146952762Y-100218849D01*
X146952767Y-100218846D01*
X146957749Y-100216523D01*
X147062611Y-100143098D01*
X147140789Y-100088357D01*
X147140792Y-100088355D01*
X147145300Y-100085198D01*
X147307198Y-99923300D01*
X147438523Y-99735749D01*
X147440846Y-99730767D01*
X147440849Y-99730762D01*
X147456805Y-99696543D01*
X147503722Y-99643258D01*
X147571999Y-99623797D01*
X147639959Y-99644339D01*
X147685195Y-99696543D01*
X147701151Y-99730762D01*
X147701154Y-99730767D01*
X147703477Y-99735749D01*
X147834802Y-99923300D01*
X147996700Y-100085198D01*
X148001208Y-100088355D01*
X148001211Y-100088357D01*
X148079389Y-100143098D01*
X148184251Y-100216523D01*
X148189233Y-100218846D01*
X148189238Y-100218849D01*
X148386775Y-100310961D01*
X148391757Y-100313284D01*
X148397065Y-100314706D01*
X148397067Y-100314707D01*
X148607598Y-100371119D01*
X148607600Y-100371119D01*
X148612913Y-100372543D01*
X148841000Y-100392498D01*
X149069087Y-100372543D01*
X149074400Y-100371119D01*
X149074402Y-100371119D01*
X149284933Y-100314707D01*
X149284935Y-100314706D01*
X149290243Y-100313284D01*
X149295225Y-100310961D01*
X149492762Y-100218849D01*
X149492767Y-100218846D01*
X149497749Y-100216523D01*
X149602611Y-100143098D01*
X149680789Y-100088357D01*
X149680792Y-100088355D01*
X149685300Y-100085198D01*
X149847198Y-99923300D01*
X149978523Y-99735749D01*
X149980846Y-99730767D01*
X149980849Y-99730762D01*
X149996805Y-99696543D01*
X150043722Y-99643258D01*
X150111999Y-99623797D01*
X150179959Y-99644339D01*
X150225195Y-99696543D01*
X150241151Y-99730762D01*
X150241154Y-99730767D01*
X150243477Y-99735749D01*
X150374802Y-99923300D01*
X150536700Y-100085198D01*
X150541208Y-100088355D01*
X150541211Y-100088357D01*
X150619389Y-100143098D01*
X150724251Y-100216523D01*
X150729233Y-100218846D01*
X150729238Y-100218849D01*
X150926775Y-100310961D01*
X150931757Y-100313284D01*
X150937065Y-100314706D01*
X150937067Y-100314707D01*
X151147598Y-100371119D01*
X151147600Y-100371119D01*
X151152913Y-100372543D01*
X151381000Y-100392498D01*
X151609087Y-100372543D01*
X151614400Y-100371119D01*
X151614402Y-100371119D01*
X151824933Y-100314707D01*
X151824935Y-100314706D01*
X151830243Y-100313284D01*
X151835225Y-100310961D01*
X152032762Y-100218849D01*
X152032767Y-100218846D01*
X152037749Y-100216523D01*
X152142611Y-100143098D01*
X152220789Y-100088357D01*
X152220792Y-100088355D01*
X152225300Y-100085198D01*
X152387198Y-99923300D01*
X152518523Y-99735749D01*
X152520846Y-99730767D01*
X152520849Y-99730762D01*
X152536805Y-99696543D01*
X152583722Y-99643258D01*
X152651999Y-99623797D01*
X152719959Y-99644339D01*
X152765195Y-99696543D01*
X152781151Y-99730762D01*
X152781154Y-99730767D01*
X152783477Y-99735749D01*
X152914802Y-99923300D01*
X153076700Y-100085198D01*
X153081208Y-100088355D01*
X153081211Y-100088357D01*
X153159389Y-100143098D01*
X153264251Y-100216523D01*
X153269233Y-100218846D01*
X153269238Y-100218849D01*
X153466775Y-100310961D01*
X153471757Y-100313284D01*
X153477065Y-100314706D01*
X153477067Y-100314707D01*
X153687598Y-100371119D01*
X153687600Y-100371119D01*
X153692913Y-100372543D01*
X153921000Y-100392498D01*
X154149087Y-100372543D01*
X154154400Y-100371119D01*
X154154402Y-100371119D01*
X154364933Y-100314707D01*
X154364935Y-100314706D01*
X154370243Y-100313284D01*
X154375225Y-100310961D01*
X154572762Y-100218849D01*
X154572767Y-100218846D01*
X154577749Y-100216523D01*
X154682611Y-100143098D01*
X154760789Y-100088357D01*
X154760792Y-100088355D01*
X154765300Y-100085198D01*
X154927198Y-99923300D01*
X155058523Y-99735749D01*
X155060846Y-99730767D01*
X155060849Y-99730762D01*
X155076805Y-99696543D01*
X155123722Y-99643258D01*
X155191999Y-99623797D01*
X155259959Y-99644339D01*
X155305195Y-99696543D01*
X155321151Y-99730762D01*
X155321154Y-99730767D01*
X155323477Y-99735749D01*
X155454802Y-99923300D01*
X155616700Y-100085198D01*
X155621208Y-100088355D01*
X155621211Y-100088357D01*
X155699389Y-100143098D01*
X155804251Y-100216523D01*
X155809233Y-100218846D01*
X155809238Y-100218849D01*
X156006775Y-100310961D01*
X156011757Y-100313284D01*
X156017065Y-100314706D01*
X156017067Y-100314707D01*
X156227598Y-100371119D01*
X156227600Y-100371119D01*
X156232913Y-100372543D01*
X156461000Y-100392498D01*
X156689087Y-100372543D01*
X156694400Y-100371119D01*
X156694402Y-100371119D01*
X156904933Y-100314707D01*
X156904935Y-100314706D01*
X156910243Y-100313284D01*
X156915225Y-100310961D01*
X157112762Y-100218849D01*
X157112767Y-100218846D01*
X157117749Y-100216523D01*
X157222611Y-100143098D01*
X157300789Y-100088357D01*
X157300792Y-100088355D01*
X157305300Y-100085198D01*
X157467198Y-99923300D01*
X157598523Y-99735749D01*
X157600846Y-99730767D01*
X157600849Y-99730762D01*
X157616805Y-99696543D01*
X157663722Y-99643258D01*
X157731999Y-99623797D01*
X157799959Y-99644339D01*
X157845195Y-99696543D01*
X157861151Y-99730762D01*
X157861154Y-99730767D01*
X157863477Y-99735749D01*
X157994802Y-99923300D01*
X158156700Y-100085198D01*
X158161208Y-100088355D01*
X158161211Y-100088357D01*
X158239389Y-100143098D01*
X158344251Y-100216523D01*
X158349233Y-100218846D01*
X158349238Y-100218849D01*
X158546775Y-100310961D01*
X158551757Y-100313284D01*
X158557065Y-100314706D01*
X158557067Y-100314707D01*
X158767598Y-100371119D01*
X158767600Y-100371119D01*
X158772913Y-100372543D01*
X159001000Y-100392498D01*
X159229087Y-100372543D01*
X159234400Y-100371119D01*
X159234402Y-100371119D01*
X159444933Y-100314707D01*
X159444935Y-100314706D01*
X159450243Y-100313284D01*
X159455225Y-100310961D01*
X159652762Y-100218849D01*
X159652767Y-100218846D01*
X159657749Y-100216523D01*
X159762611Y-100143098D01*
X159840789Y-100088357D01*
X159840792Y-100088355D01*
X159845300Y-100085198D01*
X160007198Y-99923300D01*
X160138523Y-99735749D01*
X160140846Y-99730767D01*
X160140849Y-99730762D01*
X160156805Y-99696543D01*
X160203722Y-99643258D01*
X160271999Y-99623797D01*
X160339959Y-99644339D01*
X160385195Y-99696543D01*
X160401151Y-99730762D01*
X160401154Y-99730767D01*
X160403477Y-99735749D01*
X160534802Y-99923300D01*
X160696700Y-100085198D01*
X160701208Y-100088355D01*
X160701211Y-100088357D01*
X160779389Y-100143098D01*
X160884251Y-100216523D01*
X160889233Y-100218846D01*
X160889238Y-100218849D01*
X161086775Y-100310961D01*
X161091757Y-100313284D01*
X161097065Y-100314706D01*
X161097067Y-100314707D01*
X161307598Y-100371119D01*
X161307600Y-100371119D01*
X161312913Y-100372543D01*
X161541000Y-100392498D01*
X161769087Y-100372543D01*
X161774400Y-100371119D01*
X161774402Y-100371119D01*
X161984933Y-100314707D01*
X161984935Y-100314706D01*
X161990243Y-100313284D01*
X161995225Y-100310961D01*
X162192762Y-100218849D01*
X162192767Y-100218846D01*
X162197749Y-100216523D01*
X162302611Y-100143098D01*
X162380789Y-100088357D01*
X162380792Y-100088355D01*
X162385300Y-100085198D01*
X162547198Y-99923300D01*
X162678523Y-99735749D01*
X162680846Y-99730767D01*
X162680849Y-99730762D01*
X162696805Y-99696543D01*
X162743722Y-99643258D01*
X162811999Y-99623797D01*
X162879959Y-99644339D01*
X162925195Y-99696543D01*
X162941151Y-99730762D01*
X162941154Y-99730767D01*
X162943477Y-99735749D01*
X163074802Y-99923300D01*
X163236700Y-100085198D01*
X163241208Y-100088355D01*
X163241211Y-100088357D01*
X163319389Y-100143098D01*
X163424251Y-100216523D01*
X163429233Y-100218846D01*
X163429238Y-100218849D01*
X163626775Y-100310961D01*
X163631757Y-100313284D01*
X163637065Y-100314706D01*
X163637067Y-100314707D01*
X163847598Y-100371119D01*
X163847600Y-100371119D01*
X163852913Y-100372543D01*
X164081000Y-100392498D01*
X164309087Y-100372543D01*
X164314400Y-100371119D01*
X164314402Y-100371119D01*
X164524933Y-100314707D01*
X164524935Y-100314706D01*
X164530243Y-100313284D01*
X164535225Y-100310961D01*
X164732762Y-100218849D01*
X164732767Y-100218846D01*
X164737749Y-100216523D01*
X164842611Y-100143098D01*
X164920789Y-100088357D01*
X164920792Y-100088355D01*
X164925300Y-100085198D01*
X165087198Y-99923300D01*
X165218523Y-99735749D01*
X165220846Y-99730767D01*
X165220849Y-99730762D01*
X165236805Y-99696543D01*
X165283722Y-99643258D01*
X165351999Y-99623797D01*
X165419959Y-99644339D01*
X165465195Y-99696543D01*
X165481151Y-99730762D01*
X165481154Y-99730767D01*
X165483477Y-99735749D01*
X165614802Y-99923300D01*
X165776700Y-100085198D01*
X165781208Y-100088355D01*
X165781211Y-100088357D01*
X165859389Y-100143098D01*
X165964251Y-100216523D01*
X165969233Y-100218846D01*
X165969238Y-100218849D01*
X166166775Y-100310961D01*
X166171757Y-100313284D01*
X166177065Y-100314706D01*
X166177067Y-100314707D01*
X166387598Y-100371119D01*
X166387600Y-100371119D01*
X166392913Y-100372543D01*
X166621000Y-100392498D01*
X166849087Y-100372543D01*
X166854400Y-100371119D01*
X166854402Y-100371119D01*
X167064933Y-100314707D01*
X167064935Y-100314706D01*
X167070243Y-100313284D01*
X167075225Y-100310961D01*
X167272762Y-100218849D01*
X167272767Y-100218846D01*
X167277749Y-100216523D01*
X167382611Y-100143098D01*
X167460789Y-100088357D01*
X167460792Y-100088355D01*
X167465300Y-100085198D01*
X167627198Y-99923300D01*
X167758523Y-99735749D01*
X167760846Y-99730767D01*
X167760849Y-99730762D01*
X167776805Y-99696543D01*
X167823722Y-99643258D01*
X167891999Y-99623797D01*
X167959959Y-99644339D01*
X168005195Y-99696543D01*
X168021151Y-99730762D01*
X168021154Y-99730767D01*
X168023477Y-99735749D01*
X168154802Y-99923300D01*
X168316700Y-100085198D01*
X168321208Y-100088355D01*
X168321211Y-100088357D01*
X168399389Y-100143098D01*
X168504251Y-100216523D01*
X168509233Y-100218846D01*
X168509238Y-100218849D01*
X168706775Y-100310961D01*
X168711757Y-100313284D01*
X168717065Y-100314706D01*
X168717067Y-100314707D01*
X168927598Y-100371119D01*
X168927600Y-100371119D01*
X168932913Y-100372543D01*
X169161000Y-100392498D01*
X169389087Y-100372543D01*
X169394400Y-100371119D01*
X169394402Y-100371119D01*
X169604933Y-100314707D01*
X169604935Y-100314706D01*
X169610243Y-100313284D01*
X169615225Y-100310961D01*
X169812762Y-100218849D01*
X169812767Y-100218846D01*
X169817749Y-100216523D01*
X169922611Y-100143098D01*
X170000789Y-100088357D01*
X170000792Y-100088355D01*
X170005300Y-100085198D01*
X170167198Y-99923300D01*
X170298523Y-99735749D01*
X170300846Y-99730767D01*
X170300849Y-99730762D01*
X170316805Y-99696543D01*
X170363722Y-99643258D01*
X170431999Y-99623797D01*
X170499959Y-99644339D01*
X170545195Y-99696543D01*
X170561151Y-99730762D01*
X170561154Y-99730767D01*
X170563477Y-99735749D01*
X170694802Y-99923300D01*
X170856700Y-100085198D01*
X170861208Y-100088355D01*
X170861211Y-100088357D01*
X170939389Y-100143098D01*
X171044251Y-100216523D01*
X171049233Y-100218846D01*
X171049238Y-100218849D01*
X171246775Y-100310961D01*
X171251757Y-100313284D01*
X171257065Y-100314706D01*
X171257067Y-100314707D01*
X171467598Y-100371119D01*
X171467600Y-100371119D01*
X171472913Y-100372543D01*
X171701000Y-100392498D01*
X171929087Y-100372543D01*
X171934400Y-100371119D01*
X171934402Y-100371119D01*
X172144933Y-100314707D01*
X172144935Y-100314706D01*
X172150243Y-100313284D01*
X172155225Y-100310961D01*
X172352762Y-100218849D01*
X172352767Y-100218846D01*
X172357749Y-100216523D01*
X172462611Y-100143098D01*
X172540789Y-100088357D01*
X172540792Y-100088355D01*
X172545300Y-100085198D01*
X172707198Y-99923300D01*
X172838523Y-99735749D01*
X172840846Y-99730767D01*
X172840849Y-99730762D01*
X172856805Y-99696543D01*
X172903722Y-99643258D01*
X172971999Y-99623797D01*
X173039959Y-99644339D01*
X173085195Y-99696543D01*
X173101151Y-99730762D01*
X173101154Y-99730767D01*
X173103477Y-99735749D01*
X173234802Y-99923300D01*
X173396700Y-100085198D01*
X173401208Y-100088355D01*
X173401211Y-100088357D01*
X173479389Y-100143098D01*
X173584251Y-100216523D01*
X173589233Y-100218846D01*
X173589238Y-100218849D01*
X173786775Y-100310961D01*
X173791757Y-100313284D01*
X173797065Y-100314706D01*
X173797067Y-100314707D01*
X174007598Y-100371119D01*
X174007600Y-100371119D01*
X174012913Y-100372543D01*
X174241000Y-100392498D01*
X174469087Y-100372543D01*
X174474400Y-100371119D01*
X174474402Y-100371119D01*
X174684933Y-100314707D01*
X174684935Y-100314706D01*
X174690243Y-100313284D01*
X174695225Y-100310961D01*
X174892762Y-100218849D01*
X174892767Y-100218846D01*
X174897749Y-100216523D01*
X175002611Y-100143098D01*
X175080789Y-100088357D01*
X175080792Y-100088355D01*
X175085300Y-100085198D01*
X175247198Y-99923300D01*
X175378523Y-99735749D01*
X175380846Y-99730767D01*
X175380849Y-99730762D01*
X175396805Y-99696543D01*
X175443722Y-99643258D01*
X175511999Y-99623797D01*
X175579959Y-99644339D01*
X175625195Y-99696543D01*
X175641151Y-99730762D01*
X175641154Y-99730767D01*
X175643477Y-99735749D01*
X175774802Y-99923300D01*
X175936700Y-100085198D01*
X175941208Y-100088355D01*
X175941211Y-100088357D01*
X176019389Y-100143098D01*
X176124251Y-100216523D01*
X176129233Y-100218846D01*
X176129238Y-100218849D01*
X176326775Y-100310961D01*
X176331757Y-100313284D01*
X176337065Y-100314706D01*
X176337067Y-100314707D01*
X176547598Y-100371119D01*
X176547600Y-100371119D01*
X176552913Y-100372543D01*
X176781000Y-100392498D01*
X177009087Y-100372543D01*
X177014400Y-100371119D01*
X177014402Y-100371119D01*
X177224933Y-100314707D01*
X177224935Y-100314706D01*
X177230243Y-100313284D01*
X177235225Y-100310961D01*
X177432762Y-100218849D01*
X177432767Y-100218846D01*
X177437749Y-100216523D01*
X177542611Y-100143098D01*
X177620789Y-100088357D01*
X177620792Y-100088355D01*
X177625300Y-100085198D01*
X177787198Y-99923300D01*
X177918523Y-99735749D01*
X177920846Y-99730767D01*
X177920849Y-99730762D01*
X177936805Y-99696543D01*
X177983722Y-99643258D01*
X178051999Y-99623797D01*
X178119959Y-99644339D01*
X178165195Y-99696543D01*
X178181151Y-99730762D01*
X178181154Y-99730767D01*
X178183477Y-99735749D01*
X178314802Y-99923300D01*
X178476700Y-100085198D01*
X178481208Y-100088355D01*
X178481211Y-100088357D01*
X178559389Y-100143098D01*
X178664251Y-100216523D01*
X178669233Y-100218846D01*
X178669238Y-100218849D01*
X178866775Y-100310961D01*
X178871757Y-100313284D01*
X178877065Y-100314706D01*
X178877067Y-100314707D01*
X179087598Y-100371119D01*
X179087600Y-100371119D01*
X179092913Y-100372543D01*
X179321000Y-100392498D01*
X179549087Y-100372543D01*
X179554400Y-100371119D01*
X179554402Y-100371119D01*
X179764933Y-100314707D01*
X179764935Y-100314706D01*
X179770243Y-100313284D01*
X179775225Y-100310961D01*
X179972762Y-100218849D01*
X179972767Y-100218846D01*
X179977749Y-100216523D01*
X180082611Y-100143098D01*
X180160789Y-100088357D01*
X180160792Y-100088355D01*
X180165300Y-100085198D01*
X180327198Y-99923300D01*
X180458523Y-99735749D01*
X180460846Y-99730767D01*
X180460849Y-99730762D01*
X180476805Y-99696543D01*
X180523722Y-99643258D01*
X180591999Y-99623797D01*
X180659959Y-99644339D01*
X180705195Y-99696543D01*
X180721151Y-99730762D01*
X180721154Y-99730767D01*
X180723477Y-99735749D01*
X180854802Y-99923300D01*
X181016700Y-100085198D01*
X181021208Y-100088355D01*
X181021211Y-100088357D01*
X181099389Y-100143098D01*
X181204251Y-100216523D01*
X181209233Y-100218846D01*
X181209238Y-100218849D01*
X181406775Y-100310961D01*
X181411757Y-100313284D01*
X181417065Y-100314706D01*
X181417067Y-100314707D01*
X181627598Y-100371119D01*
X181627600Y-100371119D01*
X181632913Y-100372543D01*
X181861000Y-100392498D01*
X182089087Y-100372543D01*
X182094400Y-100371119D01*
X182094402Y-100371119D01*
X182304933Y-100314707D01*
X182304935Y-100314706D01*
X182310243Y-100313284D01*
X182315225Y-100310961D01*
X182512762Y-100218849D01*
X182512767Y-100218846D01*
X182517749Y-100216523D01*
X182622611Y-100143098D01*
X182700789Y-100088357D01*
X182700792Y-100088355D01*
X182705300Y-100085198D01*
X182867198Y-99923300D01*
X182998523Y-99735749D01*
X183000846Y-99730767D01*
X183000849Y-99730762D01*
X183016805Y-99696543D01*
X183063722Y-99643258D01*
X183131999Y-99623797D01*
X183199959Y-99644339D01*
X183245195Y-99696543D01*
X183261151Y-99730762D01*
X183261154Y-99730767D01*
X183263477Y-99735749D01*
X183394802Y-99923300D01*
X183556700Y-100085198D01*
X183561208Y-100088355D01*
X183561211Y-100088357D01*
X183639389Y-100143098D01*
X183744251Y-100216523D01*
X183749233Y-100218846D01*
X183749238Y-100218849D01*
X183946775Y-100310961D01*
X183951757Y-100313284D01*
X183957065Y-100314706D01*
X183957067Y-100314707D01*
X184167598Y-100371119D01*
X184167600Y-100371119D01*
X184172913Y-100372543D01*
X184401000Y-100392498D01*
X184629087Y-100372543D01*
X184634400Y-100371119D01*
X184634402Y-100371119D01*
X184844933Y-100314707D01*
X184844935Y-100314706D01*
X184850243Y-100313284D01*
X184855225Y-100310961D01*
X185052762Y-100218849D01*
X185052767Y-100218846D01*
X185057749Y-100216523D01*
X185162611Y-100143098D01*
X185240789Y-100088357D01*
X185240792Y-100088355D01*
X185245300Y-100085198D01*
X185407198Y-99923300D01*
X185538523Y-99735749D01*
X185540846Y-99730767D01*
X185540849Y-99730762D01*
X185556805Y-99696543D01*
X185603722Y-99643258D01*
X185671999Y-99623797D01*
X185739959Y-99644339D01*
X185785195Y-99696543D01*
X185801151Y-99730762D01*
X185801154Y-99730767D01*
X185803477Y-99735749D01*
X185934802Y-99923300D01*
X186096700Y-100085198D01*
X186101208Y-100088355D01*
X186101211Y-100088357D01*
X186179389Y-100143098D01*
X186284251Y-100216523D01*
X186289233Y-100218846D01*
X186289238Y-100218849D01*
X186486775Y-100310961D01*
X186491757Y-100313284D01*
X186497065Y-100314706D01*
X186497067Y-100314707D01*
X186707598Y-100371119D01*
X186707600Y-100371119D01*
X186712913Y-100372543D01*
X186941000Y-100392498D01*
X187169087Y-100372543D01*
X187174400Y-100371119D01*
X187174402Y-100371119D01*
X187384933Y-100314707D01*
X187384935Y-100314706D01*
X187390243Y-100313284D01*
X187395225Y-100310961D01*
X187592762Y-100218849D01*
X187592767Y-100218846D01*
X187597749Y-100216523D01*
X187702611Y-100143098D01*
X187780789Y-100088357D01*
X187780792Y-100088355D01*
X187785300Y-100085198D01*
X187947198Y-99923300D01*
X188078523Y-99735749D01*
X188080846Y-99730767D01*
X188080849Y-99730762D01*
X188096805Y-99696543D01*
X188143722Y-99643258D01*
X188211999Y-99623797D01*
X188279959Y-99644339D01*
X188325195Y-99696543D01*
X188341151Y-99730762D01*
X188341154Y-99730767D01*
X188343477Y-99735749D01*
X188474802Y-99923300D01*
X188636700Y-100085198D01*
X188641208Y-100088355D01*
X188641211Y-100088357D01*
X188719389Y-100143098D01*
X188824251Y-100216523D01*
X188829233Y-100218846D01*
X188829238Y-100218849D01*
X189026775Y-100310961D01*
X189031757Y-100313284D01*
X189037065Y-100314706D01*
X189037067Y-100314707D01*
X189247598Y-100371119D01*
X189247600Y-100371119D01*
X189252913Y-100372543D01*
X189481000Y-100392498D01*
X189709087Y-100372543D01*
X189714400Y-100371119D01*
X189714402Y-100371119D01*
X189924933Y-100314707D01*
X189924935Y-100314706D01*
X189930243Y-100313284D01*
X189935225Y-100310961D01*
X190132762Y-100218849D01*
X190132767Y-100218846D01*
X190137749Y-100216523D01*
X190242611Y-100143098D01*
X190320789Y-100088357D01*
X190320792Y-100088355D01*
X190325300Y-100085198D01*
X190487198Y-99923300D01*
X190618523Y-99735749D01*
X190620846Y-99730767D01*
X190620849Y-99730762D01*
X190636805Y-99696543D01*
X190683722Y-99643258D01*
X190751999Y-99623797D01*
X190819959Y-99644339D01*
X190865195Y-99696543D01*
X190881151Y-99730762D01*
X190881154Y-99730767D01*
X190883477Y-99735749D01*
X191014802Y-99923300D01*
X191176700Y-100085198D01*
X191181208Y-100088355D01*
X191181211Y-100088357D01*
X191259389Y-100143098D01*
X191364251Y-100216523D01*
X191369233Y-100218846D01*
X191369238Y-100218849D01*
X191566775Y-100310961D01*
X191571757Y-100313284D01*
X191577065Y-100314706D01*
X191577067Y-100314707D01*
X191787598Y-100371119D01*
X191787600Y-100371119D01*
X191792913Y-100372543D01*
X192021000Y-100392498D01*
X192249087Y-100372543D01*
X192254400Y-100371119D01*
X192254402Y-100371119D01*
X192464933Y-100314707D01*
X192464935Y-100314706D01*
X192470243Y-100313284D01*
X192475225Y-100310961D01*
X192672762Y-100218849D01*
X192672767Y-100218846D01*
X192677749Y-100216523D01*
X192782611Y-100143098D01*
X192860789Y-100088357D01*
X192860792Y-100088355D01*
X192865300Y-100085198D01*
X193027198Y-99923300D01*
X193158523Y-99735749D01*
X193160846Y-99730767D01*
X193160849Y-99730762D01*
X193252961Y-99533225D01*
X193252961Y-99533224D01*
X193255284Y-99528243D01*
X193314543Y-99307087D01*
X193329500Y-99136127D01*
X193329500Y-98221873D01*
X193314543Y-98050913D01*
X193301987Y-98004053D01*
X193256707Y-97835067D01*
X193256706Y-97835065D01*
X193255284Y-97829757D01*
X193235028Y-97786317D01*
X193160849Y-97627238D01*
X193160846Y-97627233D01*
X193158523Y-97622251D01*
X193155367Y-97617744D01*
X193155366Y-97617742D01*
X193055716Y-97475427D01*
X193033408Y-97414138D01*
X193029950Y-97374613D01*
X193029621Y-97369786D01*
X193029500Y-97367314D01*
X193029500Y-97364231D01*
X193028326Y-97352262D01*
X193025310Y-97321494D01*
X193025188Y-97320181D01*
X193017623Y-97233718D01*
X193017087Y-97227587D01*
X193015600Y-97222468D01*
X193015080Y-97217167D01*
X192988209Y-97128166D01*
X192987874Y-97127033D01*
X192963630Y-97043586D01*
X192963628Y-97043582D01*
X192961909Y-97037664D01*
X192959456Y-97032932D01*
X192957916Y-97027831D01*
X192914269Y-96945740D01*
X192913657Y-96944574D01*
X192873729Y-96867547D01*
X192870892Y-96862074D01*
X192867569Y-96857911D01*
X192865066Y-96853204D01*
X192806245Y-96781082D01*
X192805554Y-96780226D01*
X192774262Y-96741027D01*
X192771758Y-96738523D01*
X192771116Y-96737805D01*
X192767415Y-96733472D01*
X192740065Y-96699938D01*
X192704737Y-96670712D01*
X192695958Y-96662723D01*
X187819855Y-91786621D01*
X187810753Y-91776478D01*
X187790897Y-91751782D01*
X187787032Y-91746975D01*
X187748578Y-91714708D01*
X187744931Y-91711528D01*
X187743119Y-91709885D01*
X187740925Y-91707691D01*
X187707651Y-91680358D01*
X187706853Y-91679696D01*
X187635526Y-91619846D01*
X187630856Y-91617278D01*
X187626739Y-91613897D01*
X187544914Y-91570023D01*
X187543755Y-91569394D01*
X187467619Y-91527538D01*
X187467611Y-91527535D01*
X187462213Y-91524567D01*
X187457131Y-91522955D01*
X187452437Y-91520438D01*
X187363469Y-91493238D01*
X187362441Y-91492918D01*
X187273694Y-91464765D01*
X187268398Y-91464171D01*
X187263302Y-91462613D01*
X187170743Y-91453210D01*
X187169607Y-91453089D01*
X187135992Y-91449319D01*
X187123270Y-91447892D01*
X187123266Y-91447892D01*
X187119773Y-91447500D01*
X187116246Y-91447500D01*
X187115261Y-91447445D01*
X187109581Y-91446998D01*
X187080175Y-91444011D01*
X187072663Y-91443248D01*
X187072661Y-91443248D01*
X187066538Y-91442626D01*
X187024259Y-91446623D01*
X187020891Y-91446941D01*
X187009033Y-91447500D01*
X184534306Y-91447500D01*
X184466185Y-91427498D01*
X184452298Y-91416317D01*
X184452229Y-91416404D01*
X184446483Y-91411866D01*
X184441303Y-91406695D01*
X184435072Y-91402854D01*
X184296968Y-91317725D01*
X184296966Y-91317724D01*
X184290738Y-91313885D01*
X184130254Y-91260655D01*
X184129389Y-91260368D01*
X184129387Y-91260368D01*
X184122861Y-91258203D01*
X184116025Y-91257503D01*
X184116022Y-91257502D01*
X184072969Y-91253091D01*
X184018400Y-91247500D01*
X183217600Y-91247500D01*
X183214354Y-91247837D01*
X183214350Y-91247837D01*
X183118692Y-91257762D01*
X183118688Y-91257763D01*
X183111834Y-91258474D01*
X183105298Y-91260655D01*
X183105296Y-91260655D01*
X182986781Y-91300195D01*
X182944054Y-91314450D01*
X182793652Y-91407522D01*
X182708039Y-91493285D01*
X182707216Y-91494109D01*
X182644934Y-91528188D01*
X182574114Y-91523185D01*
X182529025Y-91494264D01*
X182446483Y-91411866D01*
X182441303Y-91406695D01*
X182435072Y-91402854D01*
X182296968Y-91317725D01*
X182296966Y-91317724D01*
X182290738Y-91313885D01*
X182130254Y-91260655D01*
X182129389Y-91260368D01*
X182129387Y-91260368D01*
X182122861Y-91258203D01*
X182116025Y-91257503D01*
X182116022Y-91257502D01*
X182072969Y-91253091D01*
X182018400Y-91247500D01*
X181217600Y-91247500D01*
X181214354Y-91247837D01*
X181214350Y-91247837D01*
X181118692Y-91257762D01*
X181118688Y-91257763D01*
X181111834Y-91258474D01*
X181105298Y-91260655D01*
X181105296Y-91260655D01*
X180986781Y-91300195D01*
X180944054Y-91314450D01*
X180873184Y-91358306D01*
X180801438Y-91402704D01*
X180793652Y-91407522D01*
X180788479Y-91412704D01*
X180782745Y-91417249D01*
X180781419Y-91415576D01*
X180728375Y-91444598D01*
X180701489Y-91447500D01*
X179280275Y-91447500D01*
X179212154Y-91427498D01*
X179179449Y-91397065D01*
X179122917Y-91321634D01*
X179101261Y-91292739D01*
X178984705Y-91205385D01*
X178848316Y-91154255D01*
X178836771Y-91153001D01*
X178834090Y-91151887D01*
X178832778Y-91151575D01*
X178832828Y-91151363D01*
X178771210Y-91125762D01*
X178730782Y-91067401D01*
X178728323Y-90996447D01*
X178764616Y-90935428D01*
X178775225Y-90926853D01*
X178785875Y-90917916D01*
X178939916Y-90763875D01*
X178946972Y-90755467D01*
X179071931Y-90577007D01*
X179077414Y-90567511D01*
X179169490Y-90370053D01*
X179173236Y-90359761D01*
X179219394Y-90187497D01*
X179219058Y-90173401D01*
X179211116Y-90170000D01*
X175870033Y-90170000D01*
X175856502Y-90173973D01*
X175855273Y-90182522D01*
X175902764Y-90359761D01*
X175906510Y-90370053D01*
X175998586Y-90567511D01*
X176004069Y-90577007D01*
X176129028Y-90755467D01*
X176136084Y-90763875D01*
X176290125Y-90917916D01*
X176302746Y-90928507D01*
X176301892Y-90929525D01*
X176342224Y-90979984D01*
X176349532Y-91050603D01*
X176317500Y-91113963D01*
X176256298Y-91149947D01*
X176239238Y-91153000D01*
X176227684Y-91154255D01*
X176091295Y-91205385D01*
X175974739Y-91292739D01*
X175887385Y-91409295D01*
X175836255Y-91545684D01*
X175829500Y-91607866D01*
X175829500Y-93304134D01*
X175836255Y-93366316D01*
X175887385Y-93502705D01*
X175974739Y-93619261D01*
X176091295Y-93706615D01*
X176227684Y-93757745D01*
X176289866Y-93764500D01*
X178786134Y-93764500D01*
X178848316Y-93757745D01*
X178984705Y-93706615D01*
X179101261Y-93619261D01*
X179179449Y-93514935D01*
X179236308Y-93472420D01*
X179280275Y-93464500D01*
X180701694Y-93464500D01*
X180769815Y-93484502D01*
X180783702Y-93495683D01*
X180783771Y-93495596D01*
X180789517Y-93500134D01*
X180794697Y-93505305D01*
X180800927Y-93509145D01*
X180800928Y-93509146D01*
X180938090Y-93593694D01*
X180945262Y-93598115D01*
X181009016Y-93619261D01*
X181106611Y-93651632D01*
X181106613Y-93651632D01*
X181113139Y-93653797D01*
X181119975Y-93654497D01*
X181119978Y-93654498D01*
X181163031Y-93658909D01*
X181217600Y-93664500D01*
X182018400Y-93664500D01*
X182021646Y-93664163D01*
X182021650Y-93664163D01*
X182117308Y-93654238D01*
X182117312Y-93654237D01*
X182124166Y-93653526D01*
X182130702Y-93651345D01*
X182130704Y-93651345D01*
X182262806Y-93607272D01*
X182291946Y-93597550D01*
X182442348Y-93504478D01*
X182528784Y-93417891D01*
X182591066Y-93383812D01*
X182661886Y-93388815D01*
X182706976Y-93417736D01*
X182794697Y-93505305D01*
X182800927Y-93509145D01*
X182800928Y-93509146D01*
X182938090Y-93593694D01*
X182945262Y-93598115D01*
X183009016Y-93619261D01*
X183106611Y-93651632D01*
X183106613Y-93651632D01*
X183113139Y-93653797D01*
X183119975Y-93654497D01*
X183119978Y-93654498D01*
X183163031Y-93658909D01*
X183217600Y-93664500D01*
X184018400Y-93664500D01*
X184021646Y-93664163D01*
X184021650Y-93664163D01*
X184117308Y-93654238D01*
X184117312Y-93654237D01*
X184124166Y-93653526D01*
X184130702Y-93651345D01*
X184130704Y-93651345D01*
X184262806Y-93607272D01*
X184291946Y-93597550D01*
X184442348Y-93504478D01*
X184447521Y-93499296D01*
X184453255Y-93494751D01*
X184454581Y-93496424D01*
X184507625Y-93467402D01*
X184534511Y-93464500D01*
X186593075Y-93464500D01*
X186661196Y-93484502D01*
X186682170Y-93501405D01*
X190001038Y-96820272D01*
X190035064Y-96882584D01*
X190029999Y-96953399D01*
X189987452Y-97010235D01*
X189920932Y-97035046D01*
X189879332Y-97031074D01*
X189714402Y-96986881D01*
X189714400Y-96986881D01*
X189709087Y-96985457D01*
X189481000Y-96965502D01*
X189252913Y-96985457D01*
X189247600Y-96986881D01*
X189247598Y-96986881D01*
X189037067Y-97043293D01*
X189037065Y-97043294D01*
X189031757Y-97044716D01*
X189026776Y-97047039D01*
X189026775Y-97047039D01*
X188829238Y-97139151D01*
X188829233Y-97139154D01*
X188824251Y-97141477D01*
X188724574Y-97211272D01*
X188641211Y-97269643D01*
X188641208Y-97269645D01*
X188636700Y-97272802D01*
X188474802Y-97434700D01*
X188471645Y-97439208D01*
X188471643Y-97439211D01*
X188416902Y-97517389D01*
X188343477Y-97622251D01*
X188341154Y-97627233D01*
X188341151Y-97627238D01*
X188325195Y-97661457D01*
X188278278Y-97714742D01*
X188210001Y-97734203D01*
X188142041Y-97713661D01*
X188096805Y-97661457D01*
X188080849Y-97627238D01*
X188080846Y-97627233D01*
X188078523Y-97622251D01*
X188005098Y-97517389D01*
X187950357Y-97439211D01*
X187950355Y-97439208D01*
X187947198Y-97434700D01*
X187785300Y-97272802D01*
X187780792Y-97269645D01*
X187780789Y-97269643D01*
X187697426Y-97211272D01*
X187597749Y-97141477D01*
X187592767Y-97139154D01*
X187592762Y-97139151D01*
X187395225Y-97047039D01*
X187395224Y-97047039D01*
X187390243Y-97044716D01*
X187384935Y-97043294D01*
X187384933Y-97043293D01*
X187174402Y-96986881D01*
X187174400Y-96986881D01*
X187169087Y-96985457D01*
X186941000Y-96965502D01*
X186712913Y-96985457D01*
X186707600Y-96986881D01*
X186707598Y-96986881D01*
X186497067Y-97043293D01*
X186497065Y-97043294D01*
X186491757Y-97044716D01*
X186486776Y-97047039D01*
X186486775Y-97047039D01*
X186289238Y-97139151D01*
X186289233Y-97139154D01*
X186284251Y-97141477D01*
X186184574Y-97211272D01*
X186101211Y-97269643D01*
X186101208Y-97269645D01*
X186096700Y-97272802D01*
X185934802Y-97434700D01*
X185931645Y-97439208D01*
X185931643Y-97439211D01*
X185876902Y-97517389D01*
X185803477Y-97622251D01*
X185801154Y-97627233D01*
X185801151Y-97627238D01*
X185785195Y-97661457D01*
X185738278Y-97714742D01*
X185670001Y-97734203D01*
X185602041Y-97713661D01*
X185556805Y-97661457D01*
X185540849Y-97627238D01*
X185540846Y-97627233D01*
X185538523Y-97622251D01*
X185465098Y-97517389D01*
X185410357Y-97439211D01*
X185410355Y-97439208D01*
X185407198Y-97434700D01*
X185245300Y-97272802D01*
X185240792Y-97269645D01*
X185240789Y-97269643D01*
X185157426Y-97211272D01*
X185057749Y-97141477D01*
X185052767Y-97139154D01*
X185052762Y-97139151D01*
X184855225Y-97047039D01*
X184855224Y-97047039D01*
X184850243Y-97044716D01*
X184844935Y-97043294D01*
X184844933Y-97043293D01*
X184634402Y-96986881D01*
X184634400Y-96986881D01*
X184629087Y-96985457D01*
X184401000Y-96965502D01*
X184172913Y-96985457D01*
X184167600Y-96986881D01*
X184167598Y-96986881D01*
X183957067Y-97043293D01*
X183957065Y-97043294D01*
X183951757Y-97044716D01*
X183946776Y-97047039D01*
X183946775Y-97047039D01*
X183749238Y-97139151D01*
X183749233Y-97139154D01*
X183744251Y-97141477D01*
X183644574Y-97211272D01*
X183561211Y-97269643D01*
X183561208Y-97269645D01*
X183556700Y-97272802D01*
X183394802Y-97434700D01*
X183391645Y-97439208D01*
X183391643Y-97439211D01*
X183336902Y-97517389D01*
X183263477Y-97622251D01*
X183261154Y-97627233D01*
X183261151Y-97627238D01*
X183245195Y-97661457D01*
X183198278Y-97714742D01*
X183130001Y-97734203D01*
X183062041Y-97713661D01*
X183016805Y-97661457D01*
X183000849Y-97627238D01*
X183000846Y-97627233D01*
X182998523Y-97622251D01*
X182925098Y-97517389D01*
X182870357Y-97439211D01*
X182870355Y-97439208D01*
X182867198Y-97434700D01*
X182705300Y-97272802D01*
X182700792Y-97269645D01*
X182700789Y-97269643D01*
X182617426Y-97211272D01*
X182517749Y-97141477D01*
X182512767Y-97139154D01*
X182512762Y-97139151D01*
X182315225Y-97047039D01*
X182315224Y-97047039D01*
X182310243Y-97044716D01*
X182304935Y-97043294D01*
X182304933Y-97043293D01*
X182094402Y-96986881D01*
X182094400Y-96986881D01*
X182089087Y-96985457D01*
X181861000Y-96965502D01*
X181632913Y-96985457D01*
X181627600Y-96986881D01*
X181627598Y-96986881D01*
X181417067Y-97043293D01*
X181417065Y-97043294D01*
X181411757Y-97044716D01*
X181406776Y-97047039D01*
X181406775Y-97047039D01*
X181209238Y-97139151D01*
X181209233Y-97139154D01*
X181204251Y-97141477D01*
X181104574Y-97211272D01*
X181021211Y-97269643D01*
X181021208Y-97269645D01*
X181016700Y-97272802D01*
X180854802Y-97434700D01*
X180851645Y-97439208D01*
X180851643Y-97439211D01*
X180796902Y-97517389D01*
X180723477Y-97622251D01*
X180721154Y-97627233D01*
X180721151Y-97627238D01*
X180705195Y-97661457D01*
X180658278Y-97714742D01*
X180590001Y-97734203D01*
X180522041Y-97713661D01*
X180476805Y-97661457D01*
X180460849Y-97627238D01*
X180460846Y-97627233D01*
X180458523Y-97622251D01*
X180385098Y-97517389D01*
X180330357Y-97439211D01*
X180330355Y-97439208D01*
X180327198Y-97434700D01*
X180165300Y-97272802D01*
X180160792Y-97269645D01*
X180160789Y-97269643D01*
X180077426Y-97211272D01*
X179977749Y-97141477D01*
X179972767Y-97139154D01*
X179972762Y-97139151D01*
X179775225Y-97047039D01*
X179775224Y-97047039D01*
X179770243Y-97044716D01*
X179764935Y-97043294D01*
X179764933Y-97043293D01*
X179554402Y-96986881D01*
X179554400Y-96986881D01*
X179549087Y-96985457D01*
X179321000Y-96965502D01*
X179092913Y-96985457D01*
X179087600Y-96986881D01*
X179087598Y-96986881D01*
X178877067Y-97043293D01*
X178877065Y-97043294D01*
X178871757Y-97044716D01*
X178866776Y-97047039D01*
X178866775Y-97047039D01*
X178669238Y-97139151D01*
X178669233Y-97139154D01*
X178664251Y-97141477D01*
X178564574Y-97211272D01*
X178481211Y-97269643D01*
X178481208Y-97269645D01*
X178476700Y-97272802D01*
X178314802Y-97434700D01*
X178311645Y-97439208D01*
X178311643Y-97439211D01*
X178256902Y-97517389D01*
X178183477Y-97622251D01*
X178181154Y-97627233D01*
X178181151Y-97627238D01*
X178165195Y-97661457D01*
X178118278Y-97714742D01*
X178050001Y-97734203D01*
X177982041Y-97713661D01*
X177936805Y-97661457D01*
X177920849Y-97627238D01*
X177920846Y-97627233D01*
X177918523Y-97622251D01*
X177845098Y-97517389D01*
X177790357Y-97439211D01*
X177790355Y-97439208D01*
X177787198Y-97434700D01*
X177625300Y-97272802D01*
X177620792Y-97269645D01*
X177620789Y-97269643D01*
X177537426Y-97211272D01*
X177437749Y-97141477D01*
X177432767Y-97139154D01*
X177432762Y-97139151D01*
X177235225Y-97047039D01*
X177235224Y-97047039D01*
X177230243Y-97044716D01*
X177224935Y-97043294D01*
X177224933Y-97043293D01*
X177014402Y-96986881D01*
X177014400Y-96986881D01*
X177009087Y-96985457D01*
X176781000Y-96965502D01*
X176552913Y-96985457D01*
X176547600Y-96986881D01*
X176547598Y-96986881D01*
X176337067Y-97043293D01*
X176337065Y-97043294D01*
X176331757Y-97044716D01*
X176326776Y-97047039D01*
X176326775Y-97047039D01*
X176129238Y-97139151D01*
X176129233Y-97139154D01*
X176124251Y-97141477D01*
X176024574Y-97211272D01*
X175941211Y-97269643D01*
X175941208Y-97269645D01*
X175936700Y-97272802D01*
X175774802Y-97434700D01*
X175771645Y-97439208D01*
X175771643Y-97439211D01*
X175716902Y-97517389D01*
X175643477Y-97622251D01*
X175641154Y-97627233D01*
X175641151Y-97627238D01*
X175625195Y-97661457D01*
X175578278Y-97714742D01*
X175510001Y-97734203D01*
X175442041Y-97713661D01*
X175396805Y-97661457D01*
X175380849Y-97627238D01*
X175380846Y-97627233D01*
X175378523Y-97622251D01*
X175305098Y-97517389D01*
X175250357Y-97439211D01*
X175250355Y-97439208D01*
X175247198Y-97434700D01*
X175085300Y-97272802D01*
X175080792Y-97269645D01*
X175080789Y-97269643D01*
X174997426Y-97211272D01*
X174897749Y-97141477D01*
X174892767Y-97139154D01*
X174892762Y-97139151D01*
X174695225Y-97047039D01*
X174695224Y-97047039D01*
X174690243Y-97044716D01*
X174684935Y-97043294D01*
X174684933Y-97043293D01*
X174474402Y-96986881D01*
X174474400Y-96986881D01*
X174469087Y-96985457D01*
X174241000Y-96965502D01*
X174012913Y-96985457D01*
X174007600Y-96986881D01*
X174007598Y-96986881D01*
X173797067Y-97043293D01*
X173797065Y-97043294D01*
X173791757Y-97044716D01*
X173786776Y-97047039D01*
X173786775Y-97047039D01*
X173589238Y-97139151D01*
X173589233Y-97139154D01*
X173584251Y-97141477D01*
X173484574Y-97211272D01*
X173401211Y-97269643D01*
X173401208Y-97269645D01*
X173396700Y-97272802D01*
X173234802Y-97434700D01*
X173231645Y-97439208D01*
X173231643Y-97439211D01*
X173176902Y-97517389D01*
X173103477Y-97622251D01*
X173101154Y-97627233D01*
X173101151Y-97627238D01*
X173085195Y-97661457D01*
X173038278Y-97714742D01*
X172970001Y-97734203D01*
X172902041Y-97713661D01*
X172856805Y-97661457D01*
X172840849Y-97627238D01*
X172840846Y-97627233D01*
X172838523Y-97622251D01*
X172765098Y-97517389D01*
X172710357Y-97439211D01*
X172710355Y-97439208D01*
X172707198Y-97434700D01*
X172545300Y-97272802D01*
X172540792Y-97269645D01*
X172540789Y-97269643D01*
X172457426Y-97211272D01*
X172357749Y-97141477D01*
X172352767Y-97139154D01*
X172352762Y-97139151D01*
X172155225Y-97047039D01*
X172155224Y-97047039D01*
X172150243Y-97044716D01*
X172144935Y-97043294D01*
X172144933Y-97043293D01*
X171934402Y-96986881D01*
X171934400Y-96986881D01*
X171929087Y-96985457D01*
X171701000Y-96965502D01*
X171472913Y-96985457D01*
X171467600Y-96986881D01*
X171467598Y-96986881D01*
X171257067Y-97043293D01*
X171257065Y-97043294D01*
X171251757Y-97044716D01*
X171246776Y-97047039D01*
X171246775Y-97047039D01*
X171049238Y-97139151D01*
X171049233Y-97139154D01*
X171044251Y-97141477D01*
X170944574Y-97211272D01*
X170861211Y-97269643D01*
X170861208Y-97269645D01*
X170856700Y-97272802D01*
X170694802Y-97434700D01*
X170691645Y-97439208D01*
X170691643Y-97439211D01*
X170636902Y-97517389D01*
X170563477Y-97622251D01*
X170561154Y-97627233D01*
X170561151Y-97627238D01*
X170545195Y-97661457D01*
X170498278Y-97714742D01*
X170430001Y-97734203D01*
X170362041Y-97713661D01*
X170316805Y-97661457D01*
X170300849Y-97627238D01*
X170300846Y-97627233D01*
X170298523Y-97622251D01*
X170225098Y-97517389D01*
X170170357Y-97439211D01*
X170170355Y-97439208D01*
X170167198Y-97434700D01*
X170005300Y-97272802D01*
X170000792Y-97269645D01*
X170000789Y-97269643D01*
X169917426Y-97211272D01*
X169817749Y-97141477D01*
X169812767Y-97139154D01*
X169812762Y-97139151D01*
X169615225Y-97047039D01*
X169615224Y-97047039D01*
X169610243Y-97044716D01*
X169604935Y-97043294D01*
X169604933Y-97043293D01*
X169394402Y-96986881D01*
X169394400Y-96986881D01*
X169389087Y-96985457D01*
X169161000Y-96965502D01*
X168932913Y-96985457D01*
X168927600Y-96986881D01*
X168927598Y-96986881D01*
X168717067Y-97043293D01*
X168717065Y-97043294D01*
X168711757Y-97044716D01*
X168706776Y-97047039D01*
X168706775Y-97047039D01*
X168509238Y-97139151D01*
X168509233Y-97139154D01*
X168504251Y-97141477D01*
X168404574Y-97211272D01*
X168321211Y-97269643D01*
X168321208Y-97269645D01*
X168316700Y-97272802D01*
X168154802Y-97434700D01*
X168151645Y-97439208D01*
X168151643Y-97439211D01*
X168096902Y-97517389D01*
X168023477Y-97622251D01*
X168021154Y-97627233D01*
X168021151Y-97627238D01*
X168005195Y-97661457D01*
X167958278Y-97714742D01*
X167890001Y-97734203D01*
X167822041Y-97713661D01*
X167776805Y-97661457D01*
X167760849Y-97627238D01*
X167760846Y-97627233D01*
X167758523Y-97622251D01*
X167685098Y-97517389D01*
X167630357Y-97439211D01*
X167630355Y-97439208D01*
X167627198Y-97434700D01*
X167465300Y-97272802D01*
X167460792Y-97269645D01*
X167460789Y-97269643D01*
X167377426Y-97211272D01*
X167277749Y-97141477D01*
X167272767Y-97139154D01*
X167272762Y-97139151D01*
X167075225Y-97047039D01*
X167075224Y-97047039D01*
X167070243Y-97044716D01*
X167064935Y-97043294D01*
X167064933Y-97043293D01*
X166854402Y-96986881D01*
X166854400Y-96986881D01*
X166849087Y-96985457D01*
X166621000Y-96965502D01*
X166392913Y-96985457D01*
X166387600Y-96986881D01*
X166387598Y-96986881D01*
X166177067Y-97043293D01*
X166177065Y-97043294D01*
X166171757Y-97044716D01*
X166166776Y-97047039D01*
X166166775Y-97047039D01*
X165969238Y-97139151D01*
X165969233Y-97139154D01*
X165964251Y-97141477D01*
X165864574Y-97211272D01*
X165781211Y-97269643D01*
X165781208Y-97269645D01*
X165776700Y-97272802D01*
X165614802Y-97434700D01*
X165611645Y-97439208D01*
X165611643Y-97439211D01*
X165556902Y-97517389D01*
X165483477Y-97622251D01*
X165481154Y-97627233D01*
X165481151Y-97627238D01*
X165465195Y-97661457D01*
X165418278Y-97714742D01*
X165350001Y-97734203D01*
X165282041Y-97713661D01*
X165236805Y-97661457D01*
X165220849Y-97627238D01*
X165220846Y-97627233D01*
X165218523Y-97622251D01*
X165145098Y-97517389D01*
X165090357Y-97439211D01*
X165090355Y-97439208D01*
X165087198Y-97434700D01*
X164925300Y-97272802D01*
X164920792Y-97269645D01*
X164920789Y-97269643D01*
X164837426Y-97211272D01*
X164737749Y-97141477D01*
X164732767Y-97139154D01*
X164732762Y-97139151D01*
X164535225Y-97047039D01*
X164535224Y-97047039D01*
X164530243Y-97044716D01*
X164524935Y-97043294D01*
X164524933Y-97043293D01*
X164314402Y-96986881D01*
X164314400Y-96986881D01*
X164309087Y-96985457D01*
X164081000Y-96965502D01*
X163852913Y-96985457D01*
X163847600Y-96986881D01*
X163847598Y-96986881D01*
X163637067Y-97043293D01*
X163637065Y-97043294D01*
X163631757Y-97044716D01*
X163626776Y-97047039D01*
X163626775Y-97047039D01*
X163429238Y-97139151D01*
X163429233Y-97139154D01*
X163424251Y-97141477D01*
X163324574Y-97211272D01*
X163241211Y-97269643D01*
X163241208Y-97269645D01*
X163236700Y-97272802D01*
X163074802Y-97434700D01*
X163071645Y-97439208D01*
X163071643Y-97439211D01*
X163016902Y-97517389D01*
X162943477Y-97622251D01*
X162941154Y-97627233D01*
X162941151Y-97627238D01*
X162925195Y-97661457D01*
X162878278Y-97714742D01*
X162810001Y-97734203D01*
X162742041Y-97713661D01*
X162696805Y-97661457D01*
X162680849Y-97627238D01*
X162680846Y-97627233D01*
X162678523Y-97622251D01*
X162605098Y-97517389D01*
X162550357Y-97439211D01*
X162550355Y-97439208D01*
X162547198Y-97434700D01*
X162385300Y-97272802D01*
X162380792Y-97269645D01*
X162380789Y-97269643D01*
X162297426Y-97211272D01*
X162197749Y-97141477D01*
X162192767Y-97139154D01*
X162192762Y-97139151D01*
X161995225Y-97047039D01*
X161995224Y-97047039D01*
X161990243Y-97044716D01*
X161984935Y-97043294D01*
X161984933Y-97043293D01*
X161774402Y-96986881D01*
X161774400Y-96986881D01*
X161769087Y-96985457D01*
X161541000Y-96965502D01*
X161312913Y-96985457D01*
X161307600Y-96986881D01*
X161307598Y-96986881D01*
X161097067Y-97043293D01*
X161097065Y-97043294D01*
X161091757Y-97044716D01*
X161086776Y-97047039D01*
X161086775Y-97047039D01*
X160889238Y-97139151D01*
X160889233Y-97139154D01*
X160884251Y-97141477D01*
X160784574Y-97211272D01*
X160701211Y-97269643D01*
X160701208Y-97269645D01*
X160696700Y-97272802D01*
X160534802Y-97434700D01*
X160531645Y-97439208D01*
X160531643Y-97439211D01*
X160476902Y-97517389D01*
X160403477Y-97622251D01*
X160401154Y-97627233D01*
X160401151Y-97627238D01*
X160385195Y-97661457D01*
X160338278Y-97714742D01*
X160270001Y-97734203D01*
X160202041Y-97713661D01*
X160156805Y-97661457D01*
X160140849Y-97627238D01*
X160140846Y-97627233D01*
X160138523Y-97622251D01*
X160065098Y-97517389D01*
X160010357Y-97439211D01*
X160010355Y-97439208D01*
X160007198Y-97434700D01*
X159845300Y-97272802D01*
X159840792Y-97269645D01*
X159840789Y-97269643D01*
X159757426Y-97211272D01*
X159657749Y-97141477D01*
X159652767Y-97139154D01*
X159652762Y-97139151D01*
X159455225Y-97047039D01*
X159455224Y-97047039D01*
X159450243Y-97044716D01*
X159444935Y-97043294D01*
X159444933Y-97043293D01*
X159234402Y-96986881D01*
X159234400Y-96986881D01*
X159229087Y-96985457D01*
X159001000Y-96965502D01*
X158772913Y-96985457D01*
X158767600Y-96986881D01*
X158767598Y-96986881D01*
X158557067Y-97043293D01*
X158557065Y-97043294D01*
X158551757Y-97044716D01*
X158546776Y-97047039D01*
X158546775Y-97047039D01*
X158349238Y-97139151D01*
X158349233Y-97139154D01*
X158344251Y-97141477D01*
X158244574Y-97211272D01*
X158161211Y-97269643D01*
X158161208Y-97269645D01*
X158156700Y-97272802D01*
X157994802Y-97434700D01*
X157991645Y-97439208D01*
X157991643Y-97439211D01*
X157936902Y-97517389D01*
X157863477Y-97622251D01*
X157861154Y-97627233D01*
X157861151Y-97627238D01*
X157845195Y-97661457D01*
X157798278Y-97714742D01*
X157730001Y-97734203D01*
X157662041Y-97713661D01*
X157616805Y-97661457D01*
X157600849Y-97627238D01*
X157600846Y-97627233D01*
X157598523Y-97622251D01*
X157525098Y-97517389D01*
X157470357Y-97439211D01*
X157470355Y-97439208D01*
X157467198Y-97434700D01*
X157305300Y-97272802D01*
X157300792Y-97269645D01*
X157300789Y-97269643D01*
X157217426Y-97211272D01*
X157117749Y-97141477D01*
X157112767Y-97139154D01*
X157112762Y-97139151D01*
X156915225Y-97047039D01*
X156915224Y-97047039D01*
X156910243Y-97044716D01*
X156904935Y-97043294D01*
X156904933Y-97043293D01*
X156694402Y-96986881D01*
X156694400Y-96986881D01*
X156689087Y-96985457D01*
X156461000Y-96965502D01*
X156232913Y-96985457D01*
X156227600Y-96986881D01*
X156227598Y-96986881D01*
X156017067Y-97043293D01*
X156017065Y-97043294D01*
X156011757Y-97044716D01*
X156006776Y-97047039D01*
X156006775Y-97047039D01*
X155809238Y-97139151D01*
X155809233Y-97139154D01*
X155804251Y-97141477D01*
X155704574Y-97211272D01*
X155621211Y-97269643D01*
X155621208Y-97269645D01*
X155616700Y-97272802D01*
X155454802Y-97434700D01*
X155451645Y-97439208D01*
X155451643Y-97439211D01*
X155396902Y-97517389D01*
X155323477Y-97622251D01*
X155321154Y-97627233D01*
X155321151Y-97627238D01*
X155305195Y-97661457D01*
X155258278Y-97714742D01*
X155190001Y-97734203D01*
X155122041Y-97713661D01*
X155076805Y-97661457D01*
X155060849Y-97627238D01*
X155060846Y-97627233D01*
X155058523Y-97622251D01*
X154985098Y-97517389D01*
X154930357Y-97439211D01*
X154930355Y-97439208D01*
X154927198Y-97434700D01*
X154765300Y-97272802D01*
X154760792Y-97269645D01*
X154760789Y-97269643D01*
X154677426Y-97211272D01*
X154577749Y-97141477D01*
X154572767Y-97139154D01*
X154572762Y-97139151D01*
X154375225Y-97047039D01*
X154375224Y-97047039D01*
X154370243Y-97044716D01*
X154364935Y-97043294D01*
X154364933Y-97043293D01*
X154154402Y-96986881D01*
X154154400Y-96986881D01*
X154149087Y-96985457D01*
X153921000Y-96965502D01*
X153692913Y-96985457D01*
X153687600Y-96986881D01*
X153687598Y-96986881D01*
X153477067Y-97043293D01*
X153477065Y-97043294D01*
X153471757Y-97044716D01*
X153466776Y-97047039D01*
X153466775Y-97047039D01*
X153269238Y-97139151D01*
X153269233Y-97139154D01*
X153264251Y-97141477D01*
X153164574Y-97211272D01*
X153081211Y-97269643D01*
X153081208Y-97269645D01*
X153076700Y-97272802D01*
X152914802Y-97434700D01*
X152911645Y-97439208D01*
X152911643Y-97439211D01*
X152856902Y-97517389D01*
X152783477Y-97622251D01*
X152781154Y-97627233D01*
X152781151Y-97627238D01*
X152765195Y-97661457D01*
X152718278Y-97714742D01*
X152650001Y-97734203D01*
X152582041Y-97713661D01*
X152536805Y-97661457D01*
X152520849Y-97627238D01*
X152520846Y-97627233D01*
X152518523Y-97622251D01*
X152445098Y-97517389D01*
X152390357Y-97439211D01*
X152390355Y-97439208D01*
X152387198Y-97434700D01*
X152225300Y-97272802D01*
X152220792Y-97269645D01*
X152220789Y-97269643D01*
X152137426Y-97211272D01*
X152037749Y-97141477D01*
X152032767Y-97139154D01*
X152032762Y-97139151D01*
X151835225Y-97047039D01*
X151835224Y-97047039D01*
X151830243Y-97044716D01*
X151824935Y-97043294D01*
X151824933Y-97043293D01*
X151614402Y-96986881D01*
X151614400Y-96986881D01*
X151609087Y-96985457D01*
X151381000Y-96965502D01*
X151152913Y-96985457D01*
X151147600Y-96986881D01*
X151147598Y-96986881D01*
X150937067Y-97043293D01*
X150937065Y-97043294D01*
X150931757Y-97044716D01*
X150926776Y-97047039D01*
X150926775Y-97047039D01*
X150729238Y-97139151D01*
X150729233Y-97139154D01*
X150724251Y-97141477D01*
X150624574Y-97211272D01*
X150541211Y-97269643D01*
X150541208Y-97269645D01*
X150536700Y-97272802D01*
X150374802Y-97434700D01*
X150371645Y-97439208D01*
X150371643Y-97439211D01*
X150316902Y-97517389D01*
X150243477Y-97622251D01*
X150241154Y-97627233D01*
X150241151Y-97627238D01*
X150225195Y-97661457D01*
X150178278Y-97714742D01*
X150110001Y-97734203D01*
X150042041Y-97713661D01*
X149996805Y-97661457D01*
X149980849Y-97627238D01*
X149980846Y-97627233D01*
X149978523Y-97622251D01*
X149905098Y-97517389D01*
X149850357Y-97439211D01*
X149850355Y-97439208D01*
X149847198Y-97434700D01*
X149685300Y-97272802D01*
X149680792Y-97269645D01*
X149680789Y-97269643D01*
X149597426Y-97211272D01*
X149497749Y-97141477D01*
X149492767Y-97139154D01*
X149492762Y-97139151D01*
X149295225Y-97047039D01*
X149295224Y-97047039D01*
X149290243Y-97044716D01*
X149284935Y-97043294D01*
X149284933Y-97043293D01*
X149074402Y-96986881D01*
X149074400Y-96986881D01*
X149069087Y-96985457D01*
X148841000Y-96965502D01*
X148612913Y-96985457D01*
X148607600Y-96986881D01*
X148607598Y-96986881D01*
X148397067Y-97043293D01*
X148397065Y-97043294D01*
X148391757Y-97044716D01*
X148386776Y-97047039D01*
X148386775Y-97047039D01*
X148189238Y-97139151D01*
X148189233Y-97139154D01*
X148184251Y-97141477D01*
X148084574Y-97211272D01*
X148001211Y-97269643D01*
X148001208Y-97269645D01*
X147996700Y-97272802D01*
X147834802Y-97434700D01*
X147831645Y-97439208D01*
X147831643Y-97439211D01*
X147776902Y-97517389D01*
X147703477Y-97622251D01*
X147701154Y-97627233D01*
X147701151Y-97627238D01*
X147685195Y-97661457D01*
X147638278Y-97714742D01*
X147570001Y-97734203D01*
X147502041Y-97713661D01*
X147456805Y-97661457D01*
X147440849Y-97627238D01*
X147440846Y-97627233D01*
X147438523Y-97622251D01*
X147365098Y-97517389D01*
X147310357Y-97439211D01*
X147310355Y-97439208D01*
X147307198Y-97434700D01*
X147145300Y-97272802D01*
X147140792Y-97269645D01*
X147140789Y-97269643D01*
X147057426Y-97211272D01*
X146957749Y-97141477D01*
X146952767Y-97139154D01*
X146952762Y-97139151D01*
X146755225Y-97047039D01*
X146755224Y-97047039D01*
X146750243Y-97044716D01*
X146744935Y-97043294D01*
X146744933Y-97043293D01*
X146534402Y-96986881D01*
X146534400Y-96986881D01*
X146529087Y-96985457D01*
X146301000Y-96965502D01*
X146072913Y-96985457D01*
X146067600Y-96986881D01*
X146067598Y-96986881D01*
X145857067Y-97043293D01*
X145857065Y-97043294D01*
X145851757Y-97044716D01*
X145846776Y-97047039D01*
X145846775Y-97047039D01*
X145649238Y-97139151D01*
X145649233Y-97139154D01*
X145644251Y-97141477D01*
X145544574Y-97211272D01*
X145461211Y-97269643D01*
X145461208Y-97269645D01*
X145456700Y-97272802D01*
X145294802Y-97434700D01*
X145291645Y-97439208D01*
X145291643Y-97439211D01*
X145236902Y-97517389D01*
X145163477Y-97622251D01*
X145161154Y-97627233D01*
X145161151Y-97627238D01*
X145145195Y-97661457D01*
X145098278Y-97714742D01*
X145030001Y-97734203D01*
X144962041Y-97713661D01*
X144916805Y-97661457D01*
X144900849Y-97627238D01*
X144900846Y-97627233D01*
X144898523Y-97622251D01*
X144825098Y-97517389D01*
X144770357Y-97439211D01*
X144770355Y-97439208D01*
X144767198Y-97434700D01*
X144605300Y-97272802D01*
X144600792Y-97269645D01*
X144600789Y-97269643D01*
X144517426Y-97211272D01*
X144417749Y-97141477D01*
X144412767Y-97139154D01*
X144412762Y-97139151D01*
X144215225Y-97047039D01*
X144215224Y-97047039D01*
X144210243Y-97044716D01*
X144204935Y-97043294D01*
X144204933Y-97043293D01*
X143994402Y-96986881D01*
X143994400Y-96986881D01*
X143989087Y-96985457D01*
X143761000Y-96965502D01*
X143532913Y-96985457D01*
X143527600Y-96986881D01*
X143527598Y-96986881D01*
X143317067Y-97043293D01*
X143317065Y-97043294D01*
X143311757Y-97044716D01*
X143306776Y-97047039D01*
X143306775Y-97047039D01*
X143109238Y-97139151D01*
X143109233Y-97139154D01*
X143104251Y-97141477D01*
X143004574Y-97211272D01*
X142921211Y-97269643D01*
X142921208Y-97269645D01*
X142916700Y-97272802D01*
X142754802Y-97434700D01*
X142751645Y-97439208D01*
X142751643Y-97439211D01*
X142628992Y-97614374D01*
X142573535Y-97658702D01*
X142512174Y-97667366D01*
X142502740Y-97666341D01*
X142502732Y-97666341D01*
X142496611Y-97665676D01*
X142478611Y-97667251D01*
X142446609Y-97670050D01*
X142441784Y-97670379D01*
X142439313Y-97670500D01*
X142436231Y-97670500D01*
X142413763Y-97672703D01*
X142393489Y-97674691D01*
X142392174Y-97674813D01*
X142365760Y-97677124D01*
X142299587Y-97682913D01*
X142294468Y-97684400D01*
X142289167Y-97684920D01*
X142200133Y-97711801D01*
X142199000Y-97712136D01*
X142115578Y-97736373D01*
X142115574Y-97736375D01*
X142109663Y-97738092D01*
X142104934Y-97740543D01*
X142099831Y-97742084D01*
X142017669Y-97785770D01*
X142016627Y-97786317D01*
X141934074Y-97829108D01*
X141929911Y-97832431D01*
X141925204Y-97834934D01*
X141920430Y-97838828D01*
X141920428Y-97838829D01*
X141853105Y-97893737D01*
X141852160Y-97894500D01*
X141813027Y-97925739D01*
X141810536Y-97928230D01*
X141809809Y-97928880D01*
X141805463Y-97932592D01*
X141786588Y-97947987D01*
X141771938Y-97959935D01*
X141768015Y-97964677D01*
X141768013Y-97964679D01*
X141742703Y-97995273D01*
X141734713Y-98004053D01*
X139276621Y-100462145D01*
X139266478Y-100471247D01*
X139236975Y-100494968D01*
X139233008Y-100499696D01*
X139204709Y-100533421D01*
X139201528Y-100537069D01*
X139199885Y-100538881D01*
X139197691Y-100541075D01*
X139170358Y-100574349D01*
X139169696Y-100575147D01*
X139109846Y-100646474D01*
X139107278Y-100651144D01*
X139103897Y-100655261D01*
X139072860Y-100713145D01*
X139060023Y-100737086D01*
X139059394Y-100738245D01*
X139017538Y-100814381D01*
X139017535Y-100814389D01*
X139014567Y-100819787D01*
X139012955Y-100824869D01*
X139010438Y-100829563D01*
X138983238Y-100918531D01*
X138982918Y-100919559D01*
X138954765Y-101008306D01*
X138954171Y-101013602D01*
X138952613Y-101018698D01*
X138951990Y-101024834D01*
X138943218Y-101111187D01*
X138943089Y-101112393D01*
X138937500Y-101162227D01*
X138937500Y-101165754D01*
X138937445Y-101166739D01*
X138936998Y-101172419D01*
X138932626Y-101215462D01*
X133858500Y-101215462D01*
X133858500Y-93344134D01*
X146979500Y-93344134D01*
X146986255Y-93406316D01*
X147037385Y-93542705D01*
X147124739Y-93659261D01*
X147241295Y-93746615D01*
X147377684Y-93797745D01*
X147439866Y-93804500D01*
X149236134Y-93804500D01*
X149298316Y-93797745D01*
X149434705Y-93746615D01*
X149551261Y-93659261D01*
X149638615Y-93542705D01*
X149641767Y-93534296D01*
X149646077Y-93526425D01*
X149647741Y-93527336D01*
X149683663Y-93479510D01*
X149750224Y-93454807D01*
X149759009Y-93454500D01*
X156581694Y-93454500D01*
X156649815Y-93474502D01*
X156663702Y-93485683D01*
X156663771Y-93485596D01*
X156669517Y-93490134D01*
X156674697Y-93495305D01*
X156680927Y-93499145D01*
X156680928Y-93499146D01*
X156818090Y-93583694D01*
X156825262Y-93588115D01*
X156862358Y-93600419D01*
X156986611Y-93641632D01*
X156986613Y-93641632D01*
X156993139Y-93643797D01*
X156999975Y-93644497D01*
X156999978Y-93644498D01*
X157043031Y-93648909D01*
X157097600Y-93654500D01*
X157898400Y-93654500D01*
X157901646Y-93654163D01*
X157901650Y-93654163D01*
X157997308Y-93644238D01*
X157997312Y-93644237D01*
X158004166Y-93643526D01*
X158010702Y-93641345D01*
X158010704Y-93641345D01*
X158154043Y-93593523D01*
X158171946Y-93587550D01*
X158322348Y-93494478D01*
X158408784Y-93407891D01*
X158471066Y-93373812D01*
X158541886Y-93378815D01*
X158586975Y-93407736D01*
X158597148Y-93417891D01*
X158674697Y-93495305D01*
X158680927Y-93499145D01*
X158680928Y-93499146D01*
X158818090Y-93583694D01*
X158825262Y-93588115D01*
X158862358Y-93600419D01*
X158986611Y-93641632D01*
X158986613Y-93641632D01*
X158993139Y-93643797D01*
X158999975Y-93644497D01*
X158999978Y-93644498D01*
X159043031Y-93648909D01*
X159097600Y-93654500D01*
X159898400Y-93654500D01*
X159901646Y-93654163D01*
X159901650Y-93654163D01*
X159997308Y-93644238D01*
X159997312Y-93644237D01*
X160004166Y-93643526D01*
X160010702Y-93641345D01*
X160010704Y-93641345D01*
X160154043Y-93593523D01*
X160171946Y-93587550D01*
X160322348Y-93494478D01*
X160325507Y-93491313D01*
X160390232Y-93465117D01*
X160402684Y-93464500D01*
X168637260Y-93464500D01*
X168709531Y-93487287D01*
X168861251Y-93593523D01*
X168866233Y-93595846D01*
X168866238Y-93595849D01*
X169013767Y-93664642D01*
X169068757Y-93690284D01*
X169074065Y-93691706D01*
X169074067Y-93691707D01*
X169284598Y-93748119D01*
X169284600Y-93748119D01*
X169289913Y-93749543D01*
X169383663Y-93757745D01*
X169458149Y-93764262D01*
X169458156Y-93764262D01*
X169460873Y-93764500D01*
X170375127Y-93764500D01*
X170377844Y-93764262D01*
X170377851Y-93764262D01*
X170452337Y-93757745D01*
X170546087Y-93749543D01*
X170551400Y-93748119D01*
X170551402Y-93748119D01*
X170761933Y-93691707D01*
X170761935Y-93691706D01*
X170767243Y-93690284D01*
X170822233Y-93664642D01*
X170969762Y-93595849D01*
X170969767Y-93595846D01*
X170974749Y-93593523D01*
X171094188Y-93509891D01*
X171157789Y-93465357D01*
X171157792Y-93465355D01*
X171162300Y-93462198D01*
X171324198Y-93300300D01*
X171333459Y-93287075D01*
X171452366Y-93117257D01*
X171455523Y-93112749D01*
X171457846Y-93107767D01*
X171457849Y-93107762D01*
X171549961Y-92910225D01*
X171549961Y-92910224D01*
X171552284Y-92905243D01*
X171611543Y-92684087D01*
X171631498Y-92456000D01*
X171611543Y-92227913D01*
X171552284Y-92006757D01*
X171549961Y-92001775D01*
X171457849Y-91804238D01*
X171457846Y-91804233D01*
X171455523Y-91799251D01*
X171332674Y-91623805D01*
X171327357Y-91616211D01*
X171327355Y-91616208D01*
X171324198Y-91611700D01*
X171162300Y-91449802D01*
X171157792Y-91446645D01*
X171157789Y-91446643D01*
X171079611Y-91391902D01*
X170974749Y-91318477D01*
X170969767Y-91316154D01*
X170969762Y-91316151D01*
X170935543Y-91300195D01*
X170882258Y-91253278D01*
X170862797Y-91185001D01*
X170883339Y-91117041D01*
X170935543Y-91071805D01*
X170969762Y-91055849D01*
X170969767Y-91055846D01*
X170974749Y-91053523D01*
X171155652Y-90926853D01*
X171157789Y-90925357D01*
X171157792Y-90925355D01*
X171162300Y-90922198D01*
X171324198Y-90760300D01*
X171455523Y-90572749D01*
X171457846Y-90567767D01*
X171457849Y-90567762D01*
X171549961Y-90370225D01*
X171549961Y-90370224D01*
X171552284Y-90365243D01*
X171611543Y-90144087D01*
X171631498Y-89916000D01*
X171611543Y-89687913D01*
X171552284Y-89466757D01*
X171457966Y-89264489D01*
X171457849Y-89264238D01*
X171457846Y-89264233D01*
X171455523Y-89259251D01*
X171324198Y-89071700D01*
X171162300Y-88909802D01*
X171157792Y-88906645D01*
X171157789Y-88906643D01*
X171079611Y-88851902D01*
X170974749Y-88778477D01*
X170969767Y-88776154D01*
X170969762Y-88776151D01*
X170935543Y-88760195D01*
X170882258Y-88713278D01*
X170862797Y-88645001D01*
X170883339Y-88577041D01*
X170935543Y-88531805D01*
X170969762Y-88515849D01*
X170969767Y-88515846D01*
X170974749Y-88513523D01*
X171140751Y-88397287D01*
X171157789Y-88385357D01*
X171157792Y-88385355D01*
X171162300Y-88382198D01*
X171324198Y-88220300D01*
X171455523Y-88032749D01*
X171457846Y-88027767D01*
X171457849Y-88027762D01*
X171549961Y-87830225D01*
X171549961Y-87830224D01*
X171552284Y-87825243D01*
X171611543Y-87604087D01*
X171631498Y-87376000D01*
X175824502Y-87376000D01*
X175844457Y-87604087D01*
X175903716Y-87825243D01*
X175906039Y-87830224D01*
X175906039Y-87830225D01*
X175998151Y-88027762D01*
X175998154Y-88027767D01*
X176000477Y-88032749D01*
X176131802Y-88220300D01*
X176293700Y-88382198D01*
X176298208Y-88385355D01*
X176298211Y-88385357D01*
X176315249Y-88397287D01*
X176481251Y-88513523D01*
X176486233Y-88515846D01*
X176486238Y-88515849D01*
X176521049Y-88532081D01*
X176574334Y-88578998D01*
X176593795Y-88647275D01*
X176573253Y-88715235D01*
X176521049Y-88760471D01*
X176486489Y-88776586D01*
X176476993Y-88782069D01*
X176298533Y-88907028D01*
X176290125Y-88914084D01*
X176136084Y-89068125D01*
X176129028Y-89076533D01*
X176004069Y-89254993D01*
X175998586Y-89264489D01*
X175906510Y-89461947D01*
X175902764Y-89472239D01*
X175856606Y-89644503D01*
X175856942Y-89658599D01*
X175864884Y-89662000D01*
X179205967Y-89662000D01*
X179219498Y-89658027D01*
X179220727Y-89649478D01*
X179173236Y-89472239D01*
X179169490Y-89461947D01*
X179077414Y-89264489D01*
X179071931Y-89254993D01*
X178946972Y-89076533D01*
X178939916Y-89068125D01*
X178785875Y-88914084D01*
X178777467Y-88907028D01*
X178599007Y-88782069D01*
X178589511Y-88776586D01*
X178554951Y-88760471D01*
X178501666Y-88713554D01*
X178482205Y-88645277D01*
X178502747Y-88577317D01*
X178554951Y-88532081D01*
X178589762Y-88515849D01*
X178589767Y-88515846D01*
X178594749Y-88513523D01*
X178760751Y-88397287D01*
X178777789Y-88385357D01*
X178777792Y-88385355D01*
X178782300Y-88382198D01*
X178944198Y-88220300D01*
X179075523Y-88032749D01*
X179077846Y-88027767D01*
X179077849Y-88027762D01*
X179169961Y-87830225D01*
X179169961Y-87830224D01*
X179172284Y-87825243D01*
X179231543Y-87604087D01*
X179251498Y-87376000D01*
X179231543Y-87147913D01*
X179172284Y-86926757D01*
X179169961Y-86921775D01*
X179077849Y-86724238D01*
X179077846Y-86724233D01*
X179075523Y-86719251D01*
X178944198Y-86531700D01*
X178782300Y-86369802D01*
X178777792Y-86366645D01*
X178777789Y-86366643D01*
X178699611Y-86311902D01*
X178594749Y-86238477D01*
X178589767Y-86236154D01*
X178589762Y-86236151D01*
X178392225Y-86144039D01*
X178392224Y-86144039D01*
X178387243Y-86141716D01*
X178381935Y-86140294D01*
X178381933Y-86140293D01*
X178171402Y-86083881D01*
X178171400Y-86083881D01*
X178166087Y-86082457D01*
X178066520Y-86073746D01*
X177997851Y-86067738D01*
X177997844Y-86067738D01*
X177995127Y-86067500D01*
X177080873Y-86067500D01*
X177078156Y-86067738D01*
X177078149Y-86067738D01*
X177009480Y-86073746D01*
X176909913Y-86082457D01*
X176904600Y-86083881D01*
X176904598Y-86083881D01*
X176694067Y-86140293D01*
X176694065Y-86140294D01*
X176688757Y-86141716D01*
X176683776Y-86144039D01*
X176683775Y-86144039D01*
X176486238Y-86236151D01*
X176486233Y-86236154D01*
X176481251Y-86238477D01*
X176376389Y-86311902D01*
X176298211Y-86366643D01*
X176298208Y-86366645D01*
X176293700Y-86369802D01*
X176131802Y-86531700D01*
X176000477Y-86719251D01*
X175998154Y-86724233D01*
X175998151Y-86724238D01*
X175906039Y-86921775D01*
X175903716Y-86926757D01*
X175844457Y-87147913D01*
X175824502Y-87376000D01*
X171631498Y-87376000D01*
X171611543Y-87147913D01*
X171552284Y-86926757D01*
X171549961Y-86921775D01*
X171457849Y-86724238D01*
X171457846Y-86724233D01*
X171455523Y-86719251D01*
X171324198Y-86531700D01*
X171162300Y-86369802D01*
X171157792Y-86366645D01*
X171157789Y-86366643D01*
X171079611Y-86311902D01*
X170974749Y-86238477D01*
X170969767Y-86236154D01*
X170969762Y-86236151D01*
X170772225Y-86144039D01*
X170772224Y-86144039D01*
X170767243Y-86141716D01*
X170761935Y-86140294D01*
X170761933Y-86140293D01*
X170551402Y-86083881D01*
X170551400Y-86083881D01*
X170546087Y-86082457D01*
X170446520Y-86073746D01*
X170377851Y-86067738D01*
X170377844Y-86067738D01*
X170375127Y-86067500D01*
X170087925Y-86067500D01*
X170019804Y-86047498D01*
X169998830Y-86030595D01*
X165708342Y-81740108D01*
X165675535Y-81679917D01*
X165675526Y-81679834D01*
X165619550Y-81512054D01*
X165526478Y-81361652D01*
X165401303Y-81236695D01*
X165338047Y-81197703D01*
X165256968Y-81147725D01*
X165256966Y-81147724D01*
X165250738Y-81143885D01*
X165090254Y-81090655D01*
X165089389Y-81090368D01*
X165089387Y-81090368D01*
X165082861Y-81088203D01*
X165076025Y-81087503D01*
X165076022Y-81087502D01*
X165032969Y-81083091D01*
X164978400Y-81077500D01*
X164177600Y-81077500D01*
X164174354Y-81077837D01*
X164174350Y-81077837D01*
X164078692Y-81087762D01*
X164078688Y-81087763D01*
X164071834Y-81088474D01*
X164065298Y-81090655D01*
X164065296Y-81090655D01*
X163933194Y-81134728D01*
X163904054Y-81144450D01*
X163753652Y-81237522D01*
X163748479Y-81242704D01*
X163667216Y-81324109D01*
X163604934Y-81358188D01*
X163534114Y-81353185D01*
X163489025Y-81324264D01*
X163406483Y-81241866D01*
X163401303Y-81236695D01*
X163338047Y-81197703D01*
X163256968Y-81147725D01*
X163256966Y-81147724D01*
X163250738Y-81143885D01*
X163090254Y-81090655D01*
X163089389Y-81090368D01*
X163089387Y-81090368D01*
X163082861Y-81088203D01*
X163076025Y-81087503D01*
X163076022Y-81087502D01*
X163032969Y-81083091D01*
X162978400Y-81077500D01*
X162177600Y-81077500D01*
X162174354Y-81077837D01*
X162174350Y-81077837D01*
X162078692Y-81087762D01*
X162078688Y-81087763D01*
X162071834Y-81088474D01*
X162065298Y-81090655D01*
X162065296Y-81090655D01*
X161933194Y-81134728D01*
X161904054Y-81144450D01*
X161753652Y-81237522D01*
X161748479Y-81242704D01*
X161742745Y-81247249D01*
X161741419Y-81245576D01*
X161688375Y-81274598D01*
X161661489Y-81277500D01*
X149759009Y-81277500D01*
X149690888Y-81257498D01*
X149644395Y-81203842D01*
X149642097Y-81198306D01*
X149641767Y-81197703D01*
X149638615Y-81189295D01*
X149551261Y-81072739D01*
X149434705Y-80985385D01*
X149298316Y-80934255D01*
X149236134Y-80927500D01*
X147439866Y-80927500D01*
X147377684Y-80934255D01*
X147241295Y-80985385D01*
X147124739Y-81072739D01*
X147037385Y-81189295D01*
X146986255Y-81325684D01*
X146979500Y-81387866D01*
X146979500Y-83184134D01*
X146986255Y-83246316D01*
X147037385Y-83382705D01*
X147124739Y-83499261D01*
X147241295Y-83586615D01*
X147377684Y-83637745D01*
X147439866Y-83644500D01*
X149236134Y-83644500D01*
X149298316Y-83637745D01*
X149434705Y-83586615D01*
X149551261Y-83499261D01*
X149638615Y-83382705D01*
X149641767Y-83374296D01*
X149646077Y-83366425D01*
X149647741Y-83367336D01*
X149683663Y-83319510D01*
X149750224Y-83294807D01*
X149759009Y-83294500D01*
X161661694Y-83294500D01*
X161729815Y-83314502D01*
X161743702Y-83325683D01*
X161743771Y-83325596D01*
X161749517Y-83330134D01*
X161754697Y-83335305D01*
X161760927Y-83339145D01*
X161760928Y-83339146D01*
X161898090Y-83423694D01*
X161905262Y-83428115D01*
X161985005Y-83454564D01*
X162066611Y-83481632D01*
X162066613Y-83481632D01*
X162073139Y-83483797D01*
X162079975Y-83484497D01*
X162079978Y-83484498D01*
X162123031Y-83488909D01*
X162177600Y-83494500D01*
X162978400Y-83494500D01*
X162981646Y-83494163D01*
X162981650Y-83494163D01*
X163077308Y-83484238D01*
X163077312Y-83484237D01*
X163084166Y-83483526D01*
X163090702Y-83481345D01*
X163090704Y-83481345D01*
X163222806Y-83437272D01*
X163251946Y-83427550D01*
X163402348Y-83334478D01*
X163488784Y-83247891D01*
X163551066Y-83213812D01*
X163621886Y-83218815D01*
X163666975Y-83247736D01*
X163713821Y-83294500D01*
X163754697Y-83335305D01*
X163760927Y-83339145D01*
X163760928Y-83339146D01*
X163898090Y-83423694D01*
X163905262Y-83428115D01*
X163985005Y-83454564D01*
X164066611Y-83481632D01*
X164066613Y-83481632D01*
X164073139Y-83483797D01*
X164079975Y-83484497D01*
X164079978Y-83484498D01*
X164123031Y-83488909D01*
X164177600Y-83494500D01*
X164558075Y-83494500D01*
X164626196Y-83514502D01*
X164647170Y-83531405D01*
X167258171Y-86142405D01*
X167292196Y-86204717D01*
X167287132Y-86275532D01*
X167244585Y-86332368D01*
X167178065Y-86357179D01*
X167169076Y-86357500D01*
X149759009Y-86357500D01*
X149690888Y-86337498D01*
X149644395Y-86283842D01*
X149642097Y-86278306D01*
X149641767Y-86277703D01*
X149638615Y-86269295D01*
X149551261Y-86152739D01*
X149434705Y-86065385D01*
X149298316Y-86014255D01*
X149236134Y-86007500D01*
X147439866Y-86007500D01*
X147377684Y-86014255D01*
X147241295Y-86065385D01*
X147124739Y-86152739D01*
X147037385Y-86269295D01*
X146986255Y-86405684D01*
X146979500Y-86467866D01*
X146979500Y-88264134D01*
X146986255Y-88326316D01*
X147037385Y-88462705D01*
X147124739Y-88579261D01*
X147241295Y-88666615D01*
X147377684Y-88717745D01*
X147439866Y-88724500D01*
X149236134Y-88724500D01*
X149298316Y-88717745D01*
X149434705Y-88666615D01*
X149551261Y-88579261D01*
X149638615Y-88462705D01*
X149641767Y-88454296D01*
X149646077Y-88446425D01*
X149647741Y-88447336D01*
X149683663Y-88399510D01*
X149750224Y-88374807D01*
X149759009Y-88374500D01*
X168622978Y-88374500D01*
X168695249Y-88397287D01*
X168788676Y-88462705D01*
X168861251Y-88513523D01*
X168866233Y-88515846D01*
X168866238Y-88515849D01*
X168900457Y-88531805D01*
X168953742Y-88578722D01*
X168973203Y-88646999D01*
X168952661Y-88714959D01*
X168900457Y-88760195D01*
X168866238Y-88776151D01*
X168866233Y-88776154D01*
X168861251Y-88778477D01*
X168756389Y-88851902D01*
X168678211Y-88906643D01*
X168678208Y-88906645D01*
X168673700Y-88909802D01*
X168511802Y-89071700D01*
X168380477Y-89259251D01*
X168378154Y-89264233D01*
X168378151Y-89264238D01*
X168378034Y-89264489D01*
X168283716Y-89466757D01*
X168224457Y-89687913D01*
X168204502Y-89916000D01*
X168224457Y-90144087D01*
X168283716Y-90365243D01*
X168286039Y-90370224D01*
X168286039Y-90370225D01*
X168378151Y-90567762D01*
X168378154Y-90567767D01*
X168380477Y-90572749D01*
X168511802Y-90760300D01*
X168673700Y-90922198D01*
X168678208Y-90925355D01*
X168678211Y-90925357D01*
X168680348Y-90926853D01*
X168861251Y-91053523D01*
X168866233Y-91055846D01*
X168866238Y-91055849D01*
X168900457Y-91071805D01*
X168953742Y-91118722D01*
X168973203Y-91186999D01*
X168952661Y-91254959D01*
X168900457Y-91300195D01*
X168866238Y-91316151D01*
X168866233Y-91316154D01*
X168861251Y-91318477D01*
X168755030Y-91392854D01*
X168709531Y-91424713D01*
X168637260Y-91447500D01*
X160424322Y-91447500D01*
X160356201Y-91427498D01*
X160335311Y-91410678D01*
X160321303Y-91396695D01*
X160199532Y-91321634D01*
X160176968Y-91307725D01*
X160176966Y-91307724D01*
X160170738Y-91303885D01*
X160039538Y-91260368D01*
X160009389Y-91250368D01*
X160009387Y-91250368D01*
X160002861Y-91248203D01*
X159996025Y-91247503D01*
X159996022Y-91247502D01*
X159952969Y-91243091D01*
X159898400Y-91237500D01*
X159097600Y-91237500D01*
X159094354Y-91237837D01*
X159094350Y-91237837D01*
X158998692Y-91247762D01*
X158998688Y-91247763D01*
X158991834Y-91248474D01*
X158985298Y-91250655D01*
X158985296Y-91250655D01*
X158961860Y-91258474D01*
X158824054Y-91304450D01*
X158673652Y-91397522D01*
X158668479Y-91402704D01*
X158660525Y-91410672D01*
X158604668Y-91466627D01*
X158587216Y-91484109D01*
X158524934Y-91518188D01*
X158454114Y-91513185D01*
X158409025Y-91484264D01*
X158326483Y-91401866D01*
X158321303Y-91396695D01*
X158258047Y-91357703D01*
X158176968Y-91307725D01*
X158176966Y-91307724D01*
X158170738Y-91303885D01*
X158039538Y-91260368D01*
X158009389Y-91250368D01*
X158009387Y-91250368D01*
X158002861Y-91248203D01*
X157996025Y-91247503D01*
X157996022Y-91247502D01*
X157952969Y-91243091D01*
X157898400Y-91237500D01*
X157097600Y-91237500D01*
X157094354Y-91237837D01*
X157094350Y-91237837D01*
X156998692Y-91247762D01*
X156998688Y-91247763D01*
X156991834Y-91248474D01*
X156985298Y-91250655D01*
X156985296Y-91250655D01*
X156961860Y-91258474D01*
X156824054Y-91304450D01*
X156737024Y-91358306D01*
X156681194Y-91392855D01*
X156673652Y-91397522D01*
X156668479Y-91402704D01*
X156662745Y-91407249D01*
X156661419Y-91405576D01*
X156608375Y-91434598D01*
X156581489Y-91437500D01*
X149759009Y-91437500D01*
X149690888Y-91417498D01*
X149644395Y-91363842D01*
X149642097Y-91358306D01*
X149641767Y-91357703D01*
X149638615Y-91349295D01*
X149551261Y-91232739D01*
X149434705Y-91145385D01*
X149298316Y-91094255D01*
X149236134Y-91087500D01*
X147439866Y-91087500D01*
X147377684Y-91094255D01*
X147241295Y-91145385D01*
X147124739Y-91232739D01*
X147037385Y-91349295D01*
X146986255Y-91485684D01*
X146979500Y-91547866D01*
X146979500Y-93344134D01*
X133858500Y-93344134D01*
X133858500Y-67309000D01*
X133878502Y-67240879D01*
X133932158Y-67194386D01*
X133984500Y-67183000D01*
X200660500Y-67183000D01*
X200728621Y-67203002D01*
G37*
%TD.AperFunction*%
%TD*%
M02*
