M48
; DRILL file {KiCad (6.0.7)} date Fri Oct 28 08:56:27 2022
; FORMAT={-:-/ absolute / inch / decimal}
; #@! TF.CreationDate,2022-10-28T08:56:27-03:00
; #@! TF.GenerationSoftware,Kicad,Pcbnew,(6.0.7)
; #@! TF.FileFunction,MixedPlating,1,2
FMAT,2
INCH
; #@! TA.AperFunction,Plated,PTH,ViaDrill
T1C0.0315
; #@! TA.AperFunction,Plated,PTH,ComponentDrill
T2C0.0315
; #@! TA.AperFunction,Plated,PTH,ComponentDrill
T3C0.0354
; #@! TA.AperFunction,Plated,PTH,ComponentDrill
T4C0.0394
; #@! TA.AperFunction,Plated,PTH,ComponentDrill
T5C0.0433
; #@! TA.AperFunction,Plated,PTH,ComponentDrill
T6C0.0472
; #@! TA.AperFunction,Plated,PTH,ComponentDrill
T7C0.0512
; #@! TA.AperFunction,Plated,PTH,ComponentDrill
T8C0.0551
; #@! TA.AperFunction,Plated,PTH,ComponentDrill
T9C0.0591
; #@! TA.AperFunction,Plated,PTH,ViaDrill
T10C0.1575
%
G90
G05
T1
X1.8539Y-2.9969
X2.8087Y-2.085
X5.002Y-1.189
X5.2035Y-1.5327
X5.7165Y-1.5319
X6.2122Y-1.5319
T2
X6.8Y-4.7815
X6.8Y-5.0815
X6.9Y-4.7815
X6.9Y-5.0815
X7.0Y-4.7815
X7.0Y-5.0815
T3
X7.3258Y-2.9492
X7.3258Y-3.0492
X7.3297Y-3.2917
X7.3297Y-3.3917
X7.3297Y-3.6697
X7.3297Y-3.7697
T4
X1.7726Y-1.813
X1.8547Y-3.872
X1.8726Y-1.813
X1.9547Y-3.872
X1.9726Y-1.813
X2.0547Y-3.872
X2.0726Y-1.813
X2.1726Y-1.813
X2.8246Y-1.3386
X2.9246Y-1.3386
X3.0246Y-1.3386
X3.1246Y-1.3386
X3.2246Y-1.3386
X3.3246Y-1.3386
X3.4246Y-1.3386
X3.5246Y-1.3386
X5.4232Y-1.2963
X5.6004Y-1.2963
X5.9154Y-1.2963
X6.0925Y-1.2963
X6.4075Y-1.2963
X6.5846Y-1.2963
T5
X4.1024Y-1.4843
X4.1024Y-1.5843
X4.1024Y-1.6843
X4.1024Y-1.7843
X4.1024Y-1.8843
X4.1024Y-1.9843
X4.1024Y-2.0843
X4.1024Y-2.1843
X4.1024Y-2.2843
X4.1024Y-2.3843
X4.1024Y-2.4843
X4.1024Y-2.5843
X4.1024Y-2.6843
X4.1024Y-2.7843
X4.1024Y-2.8843
X4.1024Y-2.9843
X4.1024Y-3.0843
X4.1024Y-3.1843
X4.1024Y-3.2843
X4.1024Y-3.3843
X4.476Y-4.6276
X4.476Y-4.8276
X4.476Y-5.0276
X5.0024Y-1.4843
X5.0024Y-1.5843
X5.0024Y-1.6843
X5.0024Y-1.7843
X5.0024Y-1.8843
X5.0024Y-1.9843
X5.0024Y-2.0843
X5.0024Y-2.1843
X5.0024Y-2.2843
X5.0024Y-2.3843
X5.0024Y-2.4843
X5.0024Y-2.5843
X5.0024Y-2.6843
X5.0024Y-2.7843
X5.0024Y-2.8843
X5.0024Y-2.9843
X5.0024Y-3.0843
X5.0024Y-3.1843
X5.0024Y-3.2843
X5.0024Y-3.3843
X5.4898Y-4.9815
X5.4898Y-5.2098
T6
X5.7268Y-5.0815
X6.5268Y-5.0815
T7
X5.374Y-1.3947
X5.6496Y-1.3947
X5.8661Y-1.3947
X6.1417Y-1.3947
X6.3583Y-1.3947
X6.6339Y-1.3947
T8
X5.0902Y-5.7677
X5.2902Y-5.7677
X5.4902Y-5.7677
X6.5551Y-5.7677
X6.7551Y-5.7677
X6.9551Y-5.7677
T9
X6.8701Y-2.4291
X7.3465Y-2.4291
T10
X1.9713Y-6.0437
X1.9726Y-1.3327
X7.1327Y-1.3335
T0
M30
