M48
; DRILL file {KiCad (6.0.7)} date Tue Aug 23 09:40:08 2022
; FORMAT={-:-/ absolute / inch / decimal}
; #@! TF.CreationDate,2022-08-23T09:40:08-03:00
; #@! TF.GenerationSoftware,Kicad,Pcbnew,(6.0.7)
; #@! TF.FileFunction,MixedPlating,1,2
FMAT,2
INCH
; #@! TA.AperFunction,Plated,PTH,ViaDrill
T1C0.0236
; #@! TA.AperFunction,Plated,PTH,ComponentDrill
T2C0.0315
; #@! TA.AperFunction,Plated,PTH,ComponentDrill
T3C0.0394
; #@! TA.AperFunction,Plated,PTH,ComponentDrill
T4C0.0402
; #@! TA.AperFunction,Plated,PTH,ComponentDrill
T5C0.0433
; #@! TA.AperFunction,Plated,PTH,ComponentDrill
T6C0.0512
; #@! TA.AperFunction,Plated,PTH,ComponentDrill
T7C0.0591
%
G90
G05
T1
X2.5354Y-2.2992
X2.5354Y-2.7087
X2.5354Y-3.1575
X2.6201Y-4.252
X2.6565Y-4.5364
X2.685Y-2.6319
X2.687Y-2.3031
X2.689Y-2.7224
X2.6929Y-3.0591
X2.6929Y-3.1654
X2.7953Y-4.6772
X3.2031Y-4.802
X4.7256Y-3.3885
X5.0381Y-3.701
X5.0381Y-4.5859
T2
X4.5796Y-2.6396
X4.5796Y-2.9396
X4.6796Y-2.6396
X4.6796Y-2.9396
X4.7796Y-2.6396
X4.7796Y-2.9396
T3
X2.1427Y-2.065
X2.1427Y-2.2421
X2.1427Y-2.4803
X2.1427Y-2.6575
X2.1427Y-2.8957
X2.1427Y-3.0728
X2.5809Y-5.181
X2.6809Y-5.181
X2.7809Y-5.181
X2.8809Y-5.181
X2.9809Y-5.181
X3.2Y-2.05
X3.35Y-2.05
X3.5807Y-5.181
X3.6807Y-5.181
X3.7807Y-5.181
X3.8807Y-5.181
X3.9807Y-5.181
X4.0807Y-5.181
X4.1807Y-5.181
X4.2807Y-5.181
X4.6601Y-4.651
X4.6601Y-4.751
X4.6601Y-4.851
T4
X2.236Y-4.5406
X2.236Y-4.6406
X2.336Y-4.5406
X2.336Y-4.6406
T5
X2.6201Y-3.351
X2.6201Y-4.251
X2.7201Y-3.351
X2.7201Y-4.251
X2.8201Y-3.351
X2.8201Y-4.251
X2.9201Y-3.351
X2.9201Y-4.251
X3.0201Y-3.351
X3.0201Y-4.251
X3.1201Y-3.351
X3.1201Y-4.251
X3.2201Y-3.351
X3.2201Y-4.251
X3.3201Y-3.351
X3.3201Y-4.251
X3.4201Y-3.351
X3.4201Y-4.251
X3.5201Y-3.351
X3.5201Y-4.251
X3.6201Y-3.351
X3.6201Y-4.251
X3.7201Y-3.351
X3.7201Y-4.251
X3.8201Y-3.351
X3.8201Y-4.251
X3.9201Y-3.351
X3.9201Y-4.251
X4.0201Y-3.351
X4.0201Y-4.251
X4.1201Y-3.351
X4.1201Y-4.251
X4.2201Y-3.351
X4.2201Y-4.251
X4.3201Y-3.351
X4.3201Y-4.251
X4.4201Y-3.351
X4.4201Y-4.251
X4.5201Y-3.351
X4.5201Y-4.251
T6
X2.2411Y-2.0157
X2.2411Y-2.2913
X2.2411Y-2.4311
X2.2411Y-2.7067
X2.2411Y-2.8465
X2.2411Y-3.122
T7
X5.0551Y-2.1496
X5.0551Y-2.563
T0
M30
