M48
; DRILL file {KiCad (6.0.5)} date Wed May 25 12:11:12 2022
; FORMAT={-:-/ absolute / metric / decimal}
; #@! TF.CreationDate,2022-05-25T12:11:12-03:00
; #@! TF.GenerationSoftware,Kicad,Pcbnew,(6.0.5)
; #@! TF.FileFunction,Plated,1,2,PTH
FMAT,2
METRIC
; #@! TA.AperFunction,Plated,PTH,ComponentDrill
T1C0.800
; #@! TA.AperFunction,Plated,PTH,ComponentDrill
T2C1.000
; #@! TA.AperFunction,Plated,PTH,ComponentDrill
T3C1.100
%
G90
G05
T1
X169.918Y-87.376
X169.918Y-89.916
X169.918Y-92.456
X177.538Y-87.376
X177.538Y-89.916
X177.538Y-92.456
T2
X148.338Y-87.366
X148.338Y-92.446
X190.746Y-136.779
X193.286Y-136.779
X195.826Y-136.779
T3
X143.891Y-101.219
X143.891Y-124.079
X146.431Y-101.219
X146.431Y-124.079
X148.971Y-101.219
X148.971Y-124.079
X151.511Y-101.219
X151.511Y-124.079
X154.051Y-101.219
X154.051Y-124.079
X156.591Y-101.219
X156.591Y-124.079
X159.131Y-101.219
X159.131Y-124.079
X161.671Y-101.219
X161.671Y-124.079
X164.211Y-101.219
X164.211Y-124.079
X166.751Y-101.219
X166.751Y-124.079
X169.291Y-101.219
X169.291Y-124.079
X171.831Y-101.219
X171.831Y-124.079
X174.371Y-101.219
X174.371Y-124.079
X176.911Y-101.219
X176.911Y-124.079
X179.451Y-101.219
X179.451Y-124.079
X181.991Y-101.219
X181.991Y-124.079
X184.531Y-101.219
X184.531Y-124.079
X187.071Y-101.219
X187.071Y-124.079
X189.611Y-101.219
X189.611Y-124.079
X192.151Y-101.219
X192.151Y-124.079
T0
M30
