%TF.GenerationSoftware,KiCad,Pcbnew,(6.0.5)*%
%TF.CreationDate,2022-05-25T12:11:17-03:00*%
%TF.ProjectId,PCB,5043422e-6b69-4636-9164-5f7063625858,rev?*%
%TF.SameCoordinates,Original*%
%TF.FileFunction,Copper,L1,Top*%
%TF.FilePolarity,Positive*%
%FSLAX46Y46*%
G04 Gerber Fmt 4.6, Leading zero omitted, Abs format (unit mm)*
G04 Created by KiCad (PCBNEW (6.0.5)) date 2022-05-25 12:11:17*
%MOMM*%
%LPD*%
G01*
G04 APERTURE LIST*
%TA.AperFunction,ComponentPad*%
%ADD10R,1.650000X1.650000*%
%TD*%
%TA.AperFunction,ComponentPad*%
%ADD11C,1.650000*%
%TD*%
%TA.AperFunction,ComponentPad*%
%ADD12R,1.700000X1.700000*%
%TD*%
%TA.AperFunction,ComponentPad*%
%ADD13O,1.700000X1.700000*%
%TD*%
%TA.AperFunction,ComponentPad*%
%ADD14R,2.400000X1.600000*%
%TD*%
%TA.AperFunction,ComponentPad*%
%ADD15O,2.400000X1.600000*%
%TD*%
G04 APERTURE END LIST*
D10*
%TO.P,IC1,1,GND*%
%TO.N,GND*%
X143891000Y-124079000D03*
D11*
%TO.P,IC1,2,VIN*%
%TO.N,unconnected-(IC1-Pad2)*%
X146431000Y-124079000D03*
%TO.P,IC1,3,VBAT*%
%TO.N,unconnected-(IC1-Pad3)*%
X148971000Y-124079000D03*
%TO.P,IC1,4,IF_NRESET_EXT*%
%TO.N,unconnected-(IC1-Pad4)*%
X151511000Y-124079000D03*
%TO.P,IC1,5,DIP5*%
%TO.N,unconnected-(IC1-Pad5)*%
X154051000Y-124079000D03*
%TO.P,IC1,6,DIP6*%
%TO.N,unconnected-(IC1-Pad6)*%
X156591000Y-124079000D03*
%TO.P,IC1,7,DIP7*%
%TO.N,unconnected-(IC1-Pad7)*%
X159131000Y-124079000D03*
%TO.P,IC1,8,DIP8*%
%TO.N,unconnected-(IC1-Pad8)*%
X161671000Y-124079000D03*
%TO.P,IC1,9,DIP9*%
%TO.N,unconnected-(IC1-Pad9)*%
X164211000Y-124079000D03*
%TO.P,IC1,10,DIP10*%
%TO.N,unconnected-(IC1-Pad10)*%
X166751000Y-124079000D03*
%TO.P,IC1,11,DIP11*%
%TO.N,unconnected-(IC1-Pad11)*%
X169291000Y-124079000D03*
%TO.P,IC1,12,DIP12*%
%TO.N,unconnected-(IC1-Pad12)*%
X171831000Y-124079000D03*
%TO.P,IC1,13,DIP13*%
%TO.N,unconnected-(IC1-Pad13)*%
X174371000Y-124079000D03*
%TO.P,IC1,14,DIP14*%
%TO.N,unconnected-(IC1-Pad14)*%
X176911000Y-124079000D03*
%TO.P,IC1,15,DIP15*%
%TO.N,unconnected-(IC1-Pad15)*%
X179451000Y-124079000D03*
%TO.P,IC1,16,DIP16*%
%TO.N,unconnected-(IC1-Pad16)*%
X181991000Y-124079000D03*
%TO.P,IC1,17,DIP17*%
%TO.N,unconnected-(IC1-Pad17)*%
X184531000Y-124079000D03*
%TO.P,IC1,18,DIP18*%
%TO.N,unconnected-(IC1-Pad18)*%
X187071000Y-124079000D03*
%TO.P,IC1,19,DIP19*%
%TO.N,unconnected-(IC1-Pad19)*%
X189611000Y-124079000D03*
%TO.P,IC1,20,DIP20*%
%TO.N,Net-(J1-Pad2)*%
X192151000Y-124079000D03*
%TO.P,IC1,21,DIP21*%
%TO.N,/PWM*%
X192151000Y-101219000D03*
%TO.P,IC1,22,DIP22*%
%TO.N,unconnected-(IC1-Pad22)*%
X189611000Y-101219000D03*
%TO.P,IC1,23,DIP23*%
%TO.N,unconnected-(IC1-Pad23)*%
X187071000Y-101219000D03*
%TO.P,IC1,24,DIP24*%
%TO.N,unconnected-(IC1-Pad24)*%
X184531000Y-101219000D03*
%TO.P,IC1,25,DIP25*%
%TO.N,unconnected-(IC1-Pad25)*%
X181991000Y-101219000D03*
%TO.P,IC1,26,DIP26*%
%TO.N,unconnected-(IC1-Pad26)*%
X179451000Y-101219000D03*
%TO.P,IC1,27,DIP27*%
%TO.N,unconnected-(IC1-Pad27)*%
X176911000Y-101219000D03*
%TO.P,IC1,28,DIP28*%
%TO.N,unconnected-(IC1-Pad28)*%
X174371000Y-101219000D03*
%TO.P,IC1,29,DIP29*%
%TO.N,unconnected-(IC1-Pad29)*%
X171831000Y-101219000D03*
%TO.P,IC1,30,DIP30*%
%TO.N,unconnected-(IC1-Pad30)*%
X169291000Y-101219000D03*
%TO.P,IC1,31,TGT_D+*%
%TO.N,unconnected-(IC1-Pad31)*%
X166751000Y-101219000D03*
%TO.P,IC1,32,TGT_D-*%
%TO.N,unconnected-(IC1-Pad32)*%
X164211000Y-101219000D03*
%TO.P,IC1,33,TD+*%
%TO.N,unconnected-(IC1-Pad33)*%
X161671000Y-101219000D03*
%TO.P,IC1,34,TD-*%
%TO.N,unconnected-(IC1-Pad34)*%
X159131000Y-101219000D03*
%TO.P,IC1,35,RD+*%
%TO.N,unconnected-(IC1-Pad35)*%
X156591000Y-101219000D03*
%TO.P,IC1,36,RD-*%
%TO.N,unconnected-(IC1-Pad36)*%
X154051000Y-101219000D03*
%TO.P,IC1,37,IF_D+*%
%TO.N,unconnected-(IC1-Pad37)*%
X151511000Y-101219000D03*
%TO.P,IC1,38,IF_D-*%
%TO.N,unconnected-(IC1-Pad38)*%
X148971000Y-101219000D03*
%TO.P,IC1,39,+5V*%
%TO.N,unconnected-(IC1-Pad39)*%
X146431000Y-101219000D03*
%TO.P,IC1,40,EXT_3V3*%
%TO.N,VCC*%
X143891000Y-101219000D03*
%TD*%
D12*
%TO.P,J4,1,Pin_1*%
%TO.N,Net-(J4-Pad1)*%
X148338000Y-87366000D03*
%TD*%
%TO.P,J3,1,Pin_1*%
%TO.N,Net-(R2-Pad2)*%
X148338000Y-92446000D03*
%TD*%
%TO.P,J1,1,Pin_1*%
%TO.N,VCC*%
X190746000Y-136779000D03*
D13*
%TO.P,J1,2,Pin_2*%
%TO.N,Net-(J1-Pad2)*%
X193286000Y-136779000D03*
%TO.P,J1,3,Pin_3*%
%TO.N,GND*%
X195826000Y-136779000D03*
%TD*%
D14*
%TO.P,U1,1*%
%TO.N,Net-(R1-Pad2)*%
X177538000Y-92456000D03*
D15*
%TO.P,U1,2*%
%TO.N,GND*%
X177538000Y-89916000D03*
%TO.P,U1,3,NC*%
%TO.N,unconnected-(U1-Pad3)*%
X177538000Y-87376000D03*
%TO.P,U1,4*%
%TO.N,Net-(J4-Pad1)*%
X169918000Y-87376000D03*
%TO.P,U1,5,NC*%
%TO.N,unconnected-(U1-Pad5)*%
X169918000Y-89916000D03*
%TO.P,U1,6*%
%TO.N,Net-(R2-Pad1)*%
X169918000Y-92456000D03*
%TD*%
M02*
